<?xml version="1.0" standalone="no"?>
<!DOCTYPE svg PUBLIC "-//W3C//DTD SVG 20010904//EN"
 "http://www.w3.org/TR/2001/REC-SVG-20010904/DTD/svg10.dtd">
<svg version="1.0" xmlns="http://www.w3.org/2000/svg"
 width="512.000000pt" height="512.000000pt" viewBox="0 0 512.000000 512.000000"
 preserveAspectRatio="xMidYMid meet">
<metadata>
Created by potrace 1.14, written by Peter Selinger 2001-2017
</metadata>
<g transform="translate(0.000000,512.000000) scale(0.100000,-0.100000)"
fill="#000000" stroke="none">
<path d="M0 2560 l0 -2560 2560 0 2560 0 0 2560 0 2560 -2560 0 -2560 0 0
-2560z m3800 1533 c0 -5 -288 -296 -640 -648 l-640 -640 635 -889 c349 -489
635 -891 635 -893 0 -1 -565 -3 -1255 -3 l-1255 0 0 1540 0 1540 1260 0 c693
0 1260 -3 1260 -7z"/>
<path d="M1932 2217 l-432 -432 0 -273 0 -272 931 0 c765 0 930 2 926 13 -3 9
-969 1368 -991 1394 -1 1 -196 -192 -434 -430z"/>
</g>
</svg>
