<svg width="452" height="762" viewBox="0 0 452 762" fill="none" xmlns="http://www.w3.org/2000/svg">
<rect x="0.5" y="0.5" width="451" height="761" fill="#121212"/>
<rect x="0.5" y="0.5" width="451" height="761" stroke="#4D4D4F"/>
<path d="M167.624 68V46.24H175.144L178.984 62.112L182.824 46.24H190.344V68H185.928V51.168H185.448L181.192 67.04H176.776L172.52 51.168H172.04V68H167.624ZM194.786 53.824C195.916 52.352 197.804 51.616 200.45 51.616C203.095 51.616 204.983 52.352 206.114 53.824C207.244 55.2747 207.81 57.3227 207.81 59.968C207.81 65.5787 205.356 68.384 200.45 68.384C195.543 68.384 193.09 65.5787 193.09 59.968C193.09 57.3227 193.655 55.2747 194.786 53.824ZM198.082 63.584C198.53 64.352 199.319 64.736 200.45 64.736C201.58 64.736 202.359 64.352 202.786 63.584C203.234 62.816 203.458 61.6107 203.458 59.968C203.458 58.3253 203.234 57.1307 202.786 56.384C202.359 55.6373 201.58 55.264 200.45 55.264C199.319 55.264 198.53 55.6373 198.082 56.384C197.655 57.1307 197.442 58.3253 197.442 59.968C197.442 61.6107 197.655 62.816 198.082 63.584ZM223.953 45.6V68H219.697V67.328C218.203 68.032 216.913 68.384 215.825 68.384C213.499 68.384 211.878 67.712 210.961 66.368C210.043 65.024 209.585 62.9013 209.585 60C209.585 57.0773 210.129 54.9547 211.217 53.632C212.326 52.288 213.99 51.616 216.209 51.616C216.891 51.616 217.841 51.7227 219.057 51.936L219.665 52.064V45.6H223.953ZM219.217 64.16L219.665 64.064V55.648C218.491 55.4347 217.446 55.328 216.529 55.328C214.801 55.328 213.937 56.864 213.937 59.936C213.937 61.6 214.129 62.784 214.513 63.488C214.897 64.192 215.526 64.544 216.401 64.544C217.297 64.544 218.235 64.416 219.217 64.16ZM230.835 61.824C230.857 62.8053 231.113 63.52 231.603 63.968C232.115 64.3947 232.841 64.608 233.779 64.608C235.763 64.608 237.534 64.544 239.091 64.416L239.987 64.32L240.051 67.488C237.598 68.0853 235.379 68.384 233.395 68.384C230.985 68.384 229.235 67.744 228.147 66.464C227.059 65.184 226.515 63.104 226.515 60.224C226.515 54.4853 228.873 51.616 233.587 51.616C238.238 51.616 240.563 54.0267 240.563 58.848L240.243 61.824H230.835ZM236.339 58.56C236.339 57.28 236.137 56.3947 235.731 55.904C235.326 55.392 234.611 55.136 233.587 55.136C232.585 55.136 231.87 55.4027 231.443 55.936C231.038 56.448 230.825 57.3227 230.803 58.56H236.339ZM243.22 68V45.6H247.508V68H243.22ZM255.853 68H251.437V46.24H255.853V55.808L258.797 55.488L262.381 46.24H267.405L262.669 57.152L267.533 68H262.445L258.797 59.328L255.853 59.648V68ZM269.422 68V52H273.71V68H269.422ZM269.422 49.952V45.6H273.71V49.952H269.422ZM285.936 55.648H282V62.208C282 62.848 282.01 63.3067 282.032 63.584C282.074 63.84 282.192 64.064 282.384 64.256C282.597 64.448 282.917 64.544 283.344 64.544L285.776 64.48L285.968 67.904C284.538 68.224 283.45 68.384 282.704 68.384C280.784 68.384 279.472 67.9573 278.768 67.104C278.064 66.2293 277.712 64.6293 277.712 62.304V55.648H275.824V52H277.712V47.552H282V52H285.936V55.648Z" fill="#ECECEC"/>
<rect width="174" height="48" transform="translate(32 120)" fill="#FFAF52"/>
<path d="M98.116 148.5V139.148H100.328V142.858L103.702 139.148H106.404L102.708 143.152L106.586 148.5H104.024L101.28 144.692L100.328 145.742V148.5H98.116ZM109.079 140.408C108.734 140.408 108.435 140.287 108.183 140.044C107.941 139.792 107.819 139.493 107.819 139.148C107.819 138.793 107.941 138.495 108.183 138.252C108.435 138.009 108.734 137.888 109.079 137.888C109.434 137.888 109.733 138.009 109.975 138.252C110.218 138.495 110.339 138.793 110.339 139.148C110.339 139.493 110.218 139.792 109.975 140.044C109.733 140.287 109.434 140.408 109.079 140.408ZM108.001 148.5V143.18H106.685V141.556H110.143V148.5H108.001ZM114.791 148.5C114.222 148.5 113.769 148.453 113.433 148.36C113.097 148.257 112.855 148.066 112.705 147.786C112.565 147.497 112.495 147.081 112.495 146.54V143.18H111.347V141.556H112.495V139.82H114.623V141.556H116.135V143.18H114.623V145.98C114.623 146.307 114.684 146.521 114.805 146.624C114.936 146.717 115.174 146.764 115.519 146.764H116.135V148.5H114.791ZM118.088 148.5V143.18H116.94V141.556H118.088V140.422C118.088 139.871 118.181 139.442 118.368 139.134C118.555 138.826 118.844 138.611 119.236 138.49C119.628 138.369 120.137 138.308 120.762 138.308H121.728V139.988H121.14C120.767 139.988 120.519 140.025 120.398 140.1C120.277 140.175 120.216 140.347 120.216 140.618V141.556H121.728V143.18H120.216V148.5H118.088ZM125.141 140.408C124.795 140.408 124.497 140.287 124.245 140.044C124.002 139.792 123.881 139.493 123.881 139.148C123.881 138.793 124.002 138.495 124.245 138.252C124.497 138.009 124.795 137.888 125.141 137.888C125.495 137.888 125.794 138.009 126.037 138.252C126.279 138.495 126.401 138.793 126.401 139.148C126.401 139.493 126.279 139.792 126.037 140.044C125.794 140.287 125.495 140.408 125.141 140.408ZM124.063 148.5V143.18H122.747V141.556H126.205V148.5H124.063ZM130.223 148.5C129.653 148.5 129.201 148.453 128.865 148.36C128.529 148.257 128.286 148.066 128.137 147.786C127.997 147.497 127.927 147.081 127.927 146.54V139.148H130.055V145.98C130.055 146.307 130.12 146.521 130.251 146.624C130.381 146.717 130.624 146.764 130.979 146.764H131.581V148.5H130.223ZM136.173 148.668C135.426 148.668 134.764 148.523 134.185 148.234C133.616 147.935 133.168 147.511 132.841 146.96C132.524 146.409 132.365 145.751 132.365 144.986C132.365 144.249 132.533 143.609 132.869 143.068C133.214 142.527 133.667 142.107 134.227 141.808C134.796 141.509 135.417 141.36 136.089 141.36C136.854 141.36 137.508 141.542 138.049 141.906C138.6 142.261 139.015 142.755 139.295 143.39C139.575 144.015 139.692 144.739 139.645 145.56H134.507C134.544 146.045 134.722 146.409 135.039 146.652C135.366 146.895 135.725 147.016 136.117 147.016C136.444 147.016 136.724 146.969 136.957 146.876C137.2 146.773 137.386 146.647 137.517 146.498L139.211 147.114C138.847 147.646 138.39 148.038 137.839 148.29C137.298 148.542 136.742 148.668 136.173 148.668ZM134.507 144.3H137.671C137.662 143.852 137.508 143.516 137.209 143.292C136.91 143.059 136.556 142.942 136.145 142.942C135.744 142.942 135.384 143.049 135.067 143.264C134.759 143.479 134.572 143.824 134.507 144.3Z" fill="#121212"/>
<rect width="174" height="48" transform="translate(246 120)" fill="#7A8CFF"/>
<path d="M269.616 148.5V139.148H272.934L274.88 145.854L276.854 139.148H280.172V148.5H278.016V141.15L275.79 148.5H273.97L271.758 141.15V148.5H269.616ZM285.203 148.668C284.559 148.668 283.957 148.537 283.397 148.276C282.837 148.015 282.384 147.613 282.039 147.072C281.694 146.521 281.521 145.831 281.521 145C281.521 144.16 281.694 143.474 282.039 142.942C282.384 142.401 282.837 142.004 283.397 141.752C283.957 141.491 284.559 141.36 285.203 141.36C285.838 141.36 286.435 141.491 286.995 141.752C287.555 142.004 288.008 142.401 288.353 142.942C288.698 143.474 288.871 144.16 288.871 145C288.871 145.831 288.698 146.521 288.353 147.072C288.008 147.613 287.555 148.015 286.995 148.276C286.435 148.537 285.838 148.668 285.203 148.668ZM285.203 147.016C285.632 147.016 285.987 146.862 286.267 146.554C286.556 146.246 286.701 145.728 286.701 145C286.701 144.263 286.552 143.749 286.253 143.46C285.964 143.161 285.614 143.012 285.203 143.012C284.783 143.012 284.424 143.161 284.125 143.46C283.836 143.749 283.691 144.263 283.691 145C283.691 145.728 283.836 146.246 284.125 146.554C284.414 146.862 284.774 147.016 285.203 147.016ZM293.013 148.668C292.415 148.668 291.883 148.519 291.417 148.22C290.959 147.921 290.6 147.497 290.339 146.946C290.077 146.386 289.947 145.728 289.947 144.972C289.947 144.216 290.077 143.572 290.339 143.04C290.6 142.499 290.959 142.083 291.417 141.794C291.883 141.505 292.415 141.36 293.013 141.36C293.395 141.36 293.787 141.458 294.189 141.654C294.59 141.841 294.903 142.125 295.127 142.508V139.148H297.255V145.784C297.255 146.129 297.269 146.54 297.297 147.016C297.334 147.492 297.399 147.987 297.493 148.5H295.463L295.183 147.562C294.893 147.963 294.553 148.248 294.161 148.416C293.778 148.584 293.395 148.668 293.013 148.668ZM293.699 147.016C294.109 147.016 294.464 146.862 294.763 146.554C295.071 146.246 295.225 145.733 295.225 145.014C295.225 144.305 295.071 143.796 294.763 143.488C294.464 143.171 294.109 143.012 293.699 143.012C293.279 143.012 292.915 143.18 292.607 143.516C292.308 143.852 292.159 144.337 292.159 144.972C292.159 145.616 292.308 146.12 292.607 146.484C292.915 146.839 293.279 147.016 293.699 147.016ZM302.494 148.668C301.748 148.668 301.085 148.523 300.506 148.234C299.937 147.935 299.489 147.511 299.162 146.96C298.845 146.409 298.686 145.751 298.686 144.986C298.686 144.249 298.854 143.609 299.19 143.068C299.536 142.527 299.988 142.107 300.548 141.808C301.118 141.509 301.738 141.36 302.41 141.36C303.176 141.36 303.829 141.542 304.37 141.906C304.921 142.261 305.336 142.755 305.616 143.39C305.896 144.015 306.013 144.739 305.966 145.56H300.828C300.866 146.045 301.043 146.409 301.36 146.652C301.687 146.895 302.046 147.016 302.438 147.016C302.765 147.016 303.045 146.969 303.278 146.876C303.521 146.773 303.708 146.647 303.838 146.498L305.532 147.114C305.168 147.646 304.711 148.038 304.16 148.29C303.619 148.542 303.064 148.668 302.494 148.668ZM300.828 144.3H303.992C303.983 143.852 303.829 143.516 303.53 143.292C303.232 143.059 302.877 142.942 302.466 142.942C302.065 142.942 301.706 143.049 301.388 143.264C301.08 143.479 300.894 143.824 300.828 144.3ZM309.676 148.5C309.107 148.5 308.654 148.453 308.318 148.36C307.982 148.257 307.739 148.066 307.59 147.786C307.45 147.497 307.38 147.081 307.38 146.54V139.148H309.508V145.98C309.508 146.307 309.573 146.521 309.704 146.624C309.835 146.717 310.077 146.764 310.432 146.764H311.034V148.5H309.676ZM312.098 148.5V139.148H314.31V142.858L317.684 139.148H320.386L316.69 143.152L320.568 148.5H318.006L315.262 144.692L314.31 145.742V148.5H312.098ZM323.062 140.408C322.716 140.408 322.418 140.287 322.166 140.044C321.923 139.792 321.802 139.493 321.802 139.148C321.802 138.793 321.923 138.495 322.166 138.252C322.418 138.009 322.716 137.888 323.062 137.888C323.416 137.888 323.715 138.009 323.958 138.252C324.2 138.495 324.322 138.793 324.322 139.148C324.322 139.493 324.2 139.792 323.958 140.044C323.715 140.287 323.416 140.408 323.062 140.408ZM321.984 148.5V143.18H320.668V141.556H324.126V148.5H321.984ZM328.774 148.5C328.204 148.5 327.752 148.453 327.416 148.36C327.08 148.257 326.837 148.066 326.688 147.786C326.548 147.497 326.478 147.081 326.478 146.54V143.18H325.33V141.556H326.478V139.82H328.606V141.556H330.118V143.18H328.606V145.98C328.606 146.307 328.666 146.521 328.788 146.624C328.918 146.717 329.156 146.764 329.502 146.764H330.118V148.5H328.774ZM336.353 148.5V139.148H339.671L341.617 145.854L343.591 139.148H346.909V148.5H344.753V141.15L342.527 148.5H340.707L338.495 141.15V148.5H336.353ZM350.652 148.668C350.213 148.668 349.812 148.584 349.448 148.416C349.084 148.248 348.795 148.015 348.58 147.716C348.365 147.408 348.258 147.044 348.258 146.624C348.258 146.055 348.454 145.602 348.846 145.266C349.247 144.93 349.793 144.678 350.484 144.51C351.175 144.342 351.968 144.225 352.864 144.16C352.864 143.665 352.785 143.315 352.626 143.11C352.467 142.905 352.159 142.802 351.702 142.802C351.413 142.802 351.156 142.872 350.932 143.012C350.717 143.143 350.573 143.348 350.498 143.628L348.706 142.984C348.939 142.517 349.327 142.13 349.868 141.822C350.419 141.514 351.091 141.36 351.884 141.36C352.873 141.36 353.634 141.579 354.166 142.018C354.698 142.457 354.964 143.203 354.964 144.258V145.784C354.964 146.083 354.973 146.405 354.992 146.75C355.011 147.095 355.039 147.422 355.076 147.73C355.113 148.038 355.155 148.295 355.202 148.5H353.228L352.976 147.66C352.715 148.024 352.383 148.285 351.982 148.444C351.59 148.593 351.147 148.668 350.652 148.668ZM351.436 147.212C351.856 147.212 352.206 147.1 352.486 146.876C352.766 146.652 352.906 146.223 352.906 145.588V145.42C352.169 145.485 351.576 145.588 351.128 145.728C350.68 145.859 350.456 146.106 350.456 146.47C350.456 146.694 350.549 146.876 350.736 147.016C350.923 147.147 351.156 147.212 351.436 147.212ZM356.76 148.5V141.556H358.622L358.888 142.48C359.047 142.219 359.308 141.967 359.672 141.724C360.045 141.481 360.498 141.36 361.03 141.36C361.926 141.36 362.537 141.612 362.864 142.116C363.2 142.611 363.368 143.329 363.368 144.272V148.5H361.24V144.804C361.24 144.477 361.221 144.179 361.184 143.908C361.147 143.637 361.053 143.423 360.904 143.264C360.764 143.096 360.521 143.012 360.176 143.012C359.728 143.012 359.401 143.175 359.196 143.502C358.991 143.819 358.888 144.295 358.888 144.93V148.5H356.76ZM366.997 140.408C366.651 140.408 366.353 140.287 366.101 140.044C365.858 139.792 365.737 139.493 365.737 139.148C365.737 138.793 365.858 138.495 366.101 138.252C366.353 138.009 366.651 137.888 366.997 137.888C367.351 137.888 367.65 138.009 367.893 138.252C368.135 138.495 368.257 138.793 368.257 139.148C368.257 139.493 368.135 139.792 367.893 140.044C367.65 140.287 367.351 140.408 366.997 140.408ZM365.919 148.5V143.18H364.603V141.556H368.061V148.5H365.919ZM370.301 148.5V143.18H369.153V141.556H370.301V140.422C370.301 139.871 370.394 139.442 370.581 139.134C370.767 138.826 371.057 138.611 371.449 138.49C371.841 138.369 372.349 138.308 372.975 138.308H373.941V139.988H373.353C372.979 139.988 372.732 140.025 372.611 140.1C372.489 140.175 372.429 140.347 372.429 140.618V141.556H373.941V143.18H372.429V148.5H370.301ZM378.467 148.668C377.72 148.668 377.057 148.523 376.479 148.234C375.909 147.935 375.461 147.511 375.135 146.96C374.817 146.409 374.659 145.751 374.659 144.986C374.659 144.249 374.827 143.609 375.163 143.068C375.508 142.527 375.961 142.107 376.521 141.808C377.09 141.509 377.711 141.36 378.383 141.36C379.148 141.36 379.801 141.542 380.343 141.906C380.893 142.261 381.309 142.755 381.589 143.39C381.869 144.015 381.985 144.739 381.939 145.56H376.801C376.838 146.045 377.015 146.409 377.333 146.652C377.659 146.895 378.019 147.016 378.411 147.016C378.737 147.016 379.017 146.969 379.251 146.876C379.493 146.773 379.68 146.647 379.811 146.498L381.505 147.114C381.141 147.646 380.683 148.038 380.133 148.29C379.591 148.542 379.036 148.668 378.467 148.668ZM376.801 144.3H379.965C379.955 143.852 379.801 143.516 379.503 143.292C379.204 143.059 378.849 142.942 378.439 142.942C378.037 142.942 377.678 143.049 377.361 143.264C377.053 143.479 376.866 143.824 376.801 144.3ZM386.348 148.668C385.536 148.668 384.832 148.519 384.234 148.22C383.646 147.921 383.217 147.483 382.946 146.904L384.752 146.246C384.855 146.535 385.051 146.755 385.34 146.904C385.639 147.044 385.989 147.114 386.39 147.114C386.736 147.114 387.039 147.063 387.3 146.96C387.571 146.848 387.706 146.685 387.706 146.47C387.706 146.321 387.627 146.195 387.468 146.092C387.31 145.989 387.03 145.905 386.628 145.84L385.382 145.63C384.71 145.518 384.164 145.289 383.744 144.944C383.324 144.599 383.114 144.137 383.114 143.558C383.114 143.073 383.259 142.667 383.548 142.34C383.847 142.013 384.239 141.771 384.724 141.612C385.21 141.444 385.737 141.36 386.306 141.36C386.969 141.36 387.58 141.481 388.14 141.724C388.71 141.957 389.125 142.349 389.386 142.9L387.594 143.558C387.529 143.306 387.375 143.138 387.132 143.054C386.89 142.961 386.61 142.914 386.292 142.914C385.527 142.914 385.144 143.101 385.144 143.474C385.144 143.614 385.21 143.731 385.34 143.824C385.471 143.908 385.69 143.978 385.998 144.034L387.286 144.272C388.126 144.421 388.747 144.641 389.148 144.93C389.55 145.219 389.75 145.653 389.75 146.232C389.75 146.773 389.596 147.226 389.288 147.59C388.98 147.954 388.57 148.225 388.056 148.402C387.543 148.579 386.974 148.668 386.348 148.668ZM394.157 148.5C393.588 148.5 393.135 148.453 392.799 148.36C392.463 148.257 392.22 148.066 392.071 147.786C391.931 147.497 391.861 147.081 391.861 146.54V143.18H390.713V141.556H391.861V139.82H393.989V141.556H395.501V143.18H393.989V145.98C393.989 146.307 394.05 146.521 394.171 146.624C394.302 146.717 394.54 146.764 394.885 146.764H395.501V148.5H394.157Z" fill="white"/>
<rect x="32.5" y="208.5" width="387" height="125" stroke="#659E8B"/>
<path d="M201.551 246V232.4H206.251L208.651 242.32L211.051 232.4H215.751V246H212.991V235.48H212.691L210.031 245.4H207.271L204.611 235.48H204.311V246H201.551ZM218.302 237.14C219.009 236.22 220.189 235.76 221.842 235.76C223.495 235.76 224.675 236.22 225.382 237.14C226.089 238.047 226.442 239.327 226.442 240.98C226.442 244.487 224.909 246.24 221.842 246.24C218.775 246.24 217.242 244.487 217.242 240.98C217.242 239.327 217.595 238.047 218.302 237.14ZM220.362 243.24C220.642 243.72 221.135 243.96 221.842 243.96C222.549 243.96 223.035 243.72 223.302 243.24C223.582 242.76 223.722 242.007 223.722 240.98C223.722 239.953 223.582 239.207 223.302 238.74C223.035 238.273 222.549 238.04 221.842 238.04C221.135 238.04 220.642 238.273 220.362 238.74C220.095 239.207 219.962 239.953 219.962 240.98C219.962 242.007 220.095 242.76 220.362 243.24ZM236.306 232V246H233.646V245.58C232.713 246.02 231.906 246.24 231.226 246.24C229.773 246.24 228.76 245.82 228.186 244.98C227.613 244.14 227.326 242.813 227.326 241C227.326 239.173 227.666 237.847 228.346 237.02C229.04 236.18 230.08 235.76 231.466 235.76C231.893 235.76 232.486 235.827 233.246 235.96L233.626 236.04V232H236.306ZM233.346 243.6L233.626 243.54V238.28C232.893 238.147 232.24 238.08 231.666 238.08C230.586 238.08 230.046 239.04 230.046 240.96C230.046 242 230.166 242.74 230.406 243.18C230.646 243.62 231.04 243.84 231.586 243.84C232.146 243.84 232.733 243.76 233.346 243.6ZM240.383 242.14C240.396 242.753 240.556 243.2 240.863 243.48C241.183 243.747 241.636 243.88 242.223 243.88C243.463 243.88 244.57 243.84 245.543 243.76L246.103 243.7L246.143 245.68C244.61 246.053 243.223 246.24 241.983 246.24C240.476 246.24 239.383 245.84 238.703 245.04C238.023 244.24 237.683 242.94 237.683 241.14C237.683 237.553 239.156 235.76 242.103 235.76C245.01 235.76 246.463 237.267 246.463 240.28L246.263 242.14H240.383ZM243.823 240.1C243.823 239.3 243.696 238.747 243.443 238.44C243.19 238.12 242.743 237.96 242.103 237.96C241.476 237.96 241.03 238.127 240.763 238.46C240.51 238.78 240.376 239.327 240.363 240.1H243.823ZM247.898 246V232H250.578V246H247.898Z" fill="#ECECEC"/>
<rect width="170" height="48" transform="translate(48 270)" fill="#659E8B"/>
<path d="M78.396 298.668C77.3787 298.668 76.52 298.463 75.82 298.052C75.1293 297.632 74.6393 297.049 74.35 296.302L76.366 295.574C76.4967 296.022 76.7393 296.353 77.094 296.568C77.458 296.783 77.8967 296.89 78.41 296.89C78.6807 296.89 78.942 296.862 79.194 296.806C79.446 296.741 79.656 296.638 79.824 296.498C79.992 296.349 80.076 296.153 80.076 295.91C80.076 295.583 79.9173 295.331 79.6 295.154C79.2827 294.967 78.872 294.827 78.368 294.734L77.234 294.51C76.73 294.407 76.2587 294.253 75.82 294.048C75.3907 293.833 75.0453 293.553 74.784 293.208C74.5227 292.853 74.392 292.41 74.392 291.878C74.392 291.374 74.5087 290.94 74.742 290.576C74.9753 290.212 75.2833 289.913 75.666 289.68C76.058 289.447 76.4873 289.274 76.954 289.162C77.4207 289.041 77.8873 288.98 78.354 288.98C78.858 288.98 79.3433 289.05 79.81 289.19C80.286 289.33 80.7107 289.549 81.084 289.848C81.4573 290.137 81.742 290.525 81.938 291.01L79.936 291.738C79.8147 291.421 79.5953 291.178 79.278 291.01C78.97 290.842 78.5967 290.758 78.158 290.758C77.7287 290.758 77.3693 290.837 77.08 290.996C76.8 291.145 76.66 291.365 76.66 291.654C76.66 291.887 76.758 292.088 76.954 292.256C77.15 292.424 77.4067 292.541 77.724 292.606L78.984 292.858C79.3667 292.933 79.754 293.031 80.146 293.152C80.538 293.264 80.8973 293.418 81.224 293.614C81.56 293.801 81.8307 294.053 82.036 294.37C82.2413 294.687 82.344 295.089 82.344 295.574C82.344 296.069 82.2273 296.512 81.994 296.904C81.77 297.287 81.4667 297.609 81.084 297.87C80.7107 298.131 80.2907 298.332 79.824 298.472C79.3573 298.603 78.8813 298.668 78.396 298.668ZM87.212 298.668C86.4653 298.668 85.8026 298.523 85.224 298.234C84.6546 297.935 84.2066 297.511 83.88 296.96C83.5626 296.409 83.404 295.751 83.404 294.986C83.404 294.249 83.572 293.609 83.908 293.068C84.2533 292.527 84.706 292.107 85.266 291.808C85.8353 291.509 86.456 291.36 87.128 291.36C87.8933 291.36 88.5466 291.542 89.088 291.906C89.6386 292.261 90.054 292.755 90.334 293.39C90.614 294.015 90.7306 294.739 90.684 295.56H85.546C85.5833 296.045 85.7606 296.409 86.078 296.652C86.4046 296.895 86.764 297.016 87.156 297.016C87.4826 297.016 87.7626 296.969 87.996 296.876C88.2386 296.773 88.4253 296.647 88.556 296.498L90.25 297.114C89.886 297.646 89.4286 298.038 88.878 298.29C88.3366 298.542 87.7813 298.668 87.212 298.668ZM85.546 294.3H88.71C88.7006 293.852 88.5466 293.516 88.248 293.292C87.9493 293.059 87.5946 292.942 87.184 292.942C86.7826 292.942 86.4233 293.049 86.106 293.264C85.798 293.479 85.6113 293.824 85.546 294.3ZM92.0977 298.5V291.556H93.7777L94.1557 292.83C94.3703 292.27 94.6643 291.878 95.0377 291.654C95.411 291.43 95.8637 291.332 96.3957 291.36V293.488C96.2837 293.469 96.1857 293.46 96.1017 293.46C96.0177 293.451 95.9243 293.446 95.8217 293.446C95.3083 293.446 94.9117 293.567 94.6317 293.81C94.361 294.053 94.2257 294.449 94.2257 295V298.5H92.0977ZM99.9417 290.408C99.5964 290.408 99.2977 290.287 99.0457 290.044C98.8031 289.792 98.6817 289.493 98.6817 289.148C98.6817 288.793 98.8031 288.495 99.0457 288.252C99.2977 288.009 99.5964 287.888 99.9417 287.888C100.296 287.888 100.595 288.009 100.838 288.252C101.08 288.495 101.202 288.793 101.202 289.148C101.202 289.493 101.08 289.792 100.838 290.044C100.595 290.287 100.296 290.408 99.9417 290.408ZM98.8637 298.5V293.18H97.5477V291.556H101.006V298.5H98.8637ZM104.758 298.668C104.319 298.668 103.918 298.584 103.554 298.416C103.19 298.248 102.9 298.015 102.686 297.716C102.471 297.408 102.364 297.044 102.364 296.624C102.364 296.055 102.56 295.602 102.952 295.266C103.353 294.93 103.899 294.678 104.59 294.51C105.28 294.342 106.074 294.225 106.97 294.16C106.97 293.665 106.89 293.315 106.732 293.11C106.573 292.905 106.265 292.802 105.808 292.802C105.518 292.802 105.262 292.872 105.038 293.012C104.823 293.143 104.678 293.348 104.604 293.628L102.812 292.984C103.045 292.517 103.432 292.13 103.974 291.822C104.524 291.514 105.196 291.36 105.99 291.36C106.979 291.36 107.74 291.579 108.272 292.018C108.804 292.457 109.07 293.203 109.07 294.258V295.784C109.07 296.083 109.079 296.405 109.098 296.75C109.116 297.095 109.144 297.422 109.182 297.73C109.219 298.038 109.261 298.295 109.308 298.5H107.334L107.082 297.66C106.82 298.024 106.489 298.285 106.088 298.444C105.696 298.593 105.252 298.668 104.758 298.668ZM105.542 297.212C105.962 297.212 106.312 297.1 106.592 296.876C106.872 296.652 107.012 296.223 107.012 295.588V295.42C106.274 295.485 105.682 295.588 105.234 295.728C104.786 295.859 104.562 296.106 104.562 296.47C104.562 296.694 104.655 296.876 104.842 297.016C105.028 297.147 105.262 297.212 105.542 297.212ZM113.162 298.5C112.593 298.5 112.14 298.453 111.804 298.36C111.468 298.257 111.225 298.066 111.076 297.786C110.936 297.497 110.866 297.081 110.866 296.54V289.148H112.994V295.98C112.994 296.307 113.059 296.521 113.19 296.624C113.321 296.717 113.563 296.764 113.918 296.764H114.52V298.5H113.162ZM117.316 290.408C116.97 290.408 116.672 290.287 116.42 290.044C116.177 289.792 116.056 289.493 116.056 289.148C116.056 288.793 116.177 288.495 116.42 288.252C116.672 288.009 116.97 287.888 117.316 287.888C117.67 287.888 117.969 288.009 118.212 288.252C118.454 288.495 118.576 288.793 118.576 289.148C118.576 289.493 118.454 289.792 118.212 290.044C117.969 290.287 117.67 290.408 117.316 290.408ZM116.238 298.5V293.18H114.922V291.556H118.38V298.5H116.238ZM119.822 298.5V296.806L123.42 293.25H120.018V291.556H126.15V293.25L122.566 296.806H126.346V298.5H119.822ZM131.164 298.668C130.418 298.668 129.755 298.523 129.176 298.234C128.607 297.935 128.159 297.511 127.832 296.96C127.515 296.409 127.356 295.751 127.356 294.986C127.356 294.249 127.524 293.609 127.86 293.068C128.206 292.527 128.658 292.107 129.218 291.808C129.788 291.509 130.408 291.36 131.08 291.36C131.846 291.36 132.499 291.542 133.04 291.906C133.591 292.261 134.006 292.755 134.286 293.39C134.566 294.015 134.683 294.739 134.636 295.56H129.498C129.536 296.045 129.713 296.409 130.03 296.652C130.357 296.895 130.716 297.016 131.108 297.016C131.435 297.016 131.715 296.969 131.948 296.876C132.191 296.773 132.378 296.647 132.508 296.498L134.202 297.114C133.838 297.646 133.381 298.038 132.83 298.29C132.289 298.542 131.734 298.668 131.164 298.668ZM129.498 294.3H132.662C132.653 293.852 132.499 293.516 132.2 293.292C131.902 293.059 131.547 292.942 131.136 292.942C130.735 292.942 130.376 293.049 130.058 293.264C129.75 293.479 129.564 293.824 129.498 294.3ZM138.752 298.668C138.155 298.668 137.623 298.519 137.156 298.22C136.699 297.921 136.339 297.497 136.078 296.946C135.817 296.386 135.686 295.728 135.686 294.972C135.686 294.216 135.817 293.572 136.078 293.04C136.339 292.499 136.699 292.083 137.156 291.794C137.623 291.505 138.155 291.36 138.752 291.36C139.135 291.36 139.527 291.458 139.928 291.654C140.329 291.841 140.642 292.125 140.866 292.508V289.148H142.994V295.784C142.994 296.129 143.008 296.54 143.036 297.016C143.073 297.492 143.139 297.987 143.232 298.5H141.202L140.922 297.562C140.633 297.963 140.292 298.248 139.9 298.416C139.517 298.584 139.135 298.668 138.752 298.668ZM139.438 297.016C139.849 297.016 140.203 296.862 140.502 296.554C140.81 296.246 140.964 295.733 140.964 295.014C140.964 294.305 140.81 293.796 140.502 293.488C140.203 293.171 139.849 293.012 139.438 293.012C139.018 293.012 138.654 293.18 138.346 293.516C138.047 293.852 137.898 294.337 137.898 294.972C137.898 295.616 138.047 296.12 138.346 296.484C138.654 296.839 139.018 297.016 139.438 297.016ZM149.59 298.5V289.148H152.908L154.854 295.854L156.828 289.148H160.146V298.5H157.99V291.15L155.764 298.5H153.944L151.732 291.15V298.5H149.59ZM165.177 298.668C164.533 298.668 163.931 298.537 163.371 298.276C162.811 298.015 162.359 297.613 162.013 297.072C161.668 296.521 161.495 295.831 161.495 295C161.495 294.16 161.668 293.474 162.013 292.942C162.359 292.401 162.811 292.004 163.371 291.752C163.931 291.491 164.533 291.36 165.177 291.36C165.812 291.36 166.409 291.491 166.969 291.752C167.529 292.004 167.982 292.401 168.327 292.942C168.673 293.474 168.845 294.16 168.845 295C168.845 295.831 168.673 296.521 168.327 297.072C167.982 297.613 167.529 298.015 166.969 298.276C166.409 298.537 165.812 298.668 165.177 298.668ZM165.177 297.016C165.607 297.016 165.961 296.862 166.241 296.554C166.531 296.246 166.675 295.728 166.675 295C166.675 294.263 166.526 293.749 166.227 293.46C165.938 293.161 165.588 293.012 165.177 293.012C164.757 293.012 164.398 293.161 164.099 293.46C163.81 293.749 163.665 294.263 163.665 295C163.665 295.728 163.81 296.246 164.099 296.554C164.389 296.862 164.748 297.016 165.177 297.016ZM172.987 298.668C172.389 298.668 171.857 298.519 171.391 298.22C170.933 297.921 170.574 297.497 170.313 296.946C170.051 296.386 169.921 295.728 169.921 294.972C169.921 294.216 170.051 293.572 170.313 293.04C170.574 292.499 170.933 292.083 171.391 291.794C171.857 291.505 172.389 291.36 172.987 291.36C173.369 291.36 173.761 291.458 174.163 291.654C174.564 291.841 174.877 292.125 175.101 292.508V289.148H177.229V295.784C177.229 296.129 177.243 296.54 177.271 297.016C177.308 297.492 177.373 297.987 177.467 298.5H175.437L175.157 297.562C174.867 297.963 174.527 298.248 174.135 298.416C173.752 298.584 173.369 298.668 172.987 298.668ZM173.673 297.016C174.083 297.016 174.438 296.862 174.737 296.554C175.045 296.246 175.199 295.733 175.199 295.014C175.199 294.305 175.045 293.796 174.737 293.488C174.438 293.171 174.083 293.012 173.673 293.012C173.253 293.012 172.889 293.18 172.581 293.516C172.282 293.852 172.133 294.337 172.133 294.972C172.133 295.616 172.282 296.12 172.581 296.484C172.889 296.839 173.253 297.016 173.673 297.016ZM182.469 298.668C181.722 298.668 181.059 298.523 180.481 298.234C179.911 297.935 179.463 297.511 179.137 296.96C178.819 296.409 178.661 295.751 178.661 294.986C178.661 294.249 178.829 293.609 179.165 293.068C179.51 292.527 179.963 292.107 180.523 291.808C181.092 291.509 181.713 291.36 182.385 291.36C183.15 291.36 183.803 291.542 184.345 291.906C184.895 292.261 185.311 292.755 185.591 293.39C185.871 294.015 185.987 294.739 185.941 295.56H180.803C180.84 296.045 181.017 296.409 181.335 296.652C181.661 296.895 182.021 297.016 182.413 297.016C182.739 297.016 183.019 296.969 183.253 296.876C183.495 296.773 183.682 296.647 183.813 296.498L185.507 297.114C185.143 297.646 184.685 298.038 184.135 298.29C183.593 298.542 183.038 298.668 182.469 298.668ZM180.803 294.3H183.967C183.957 293.852 183.803 293.516 183.505 293.292C183.206 293.059 182.851 292.942 182.441 292.942C182.039 292.942 181.68 293.049 181.363 293.264C181.055 293.479 180.868 293.824 180.803 294.3ZM189.65 298.5C189.081 298.5 188.628 298.453 188.292 298.36C187.956 298.257 187.714 298.066 187.564 297.786C187.424 297.497 187.354 297.081 187.354 296.54V289.148H189.482V295.98C189.482 296.307 189.548 296.521 189.678 296.624C189.809 296.717 190.052 296.764 190.406 296.764H191.008V298.5H189.65Z" fill="white"/>
<rect width="170" height="48" transform="translate(234 270)" fill="#659E8B"/>
<path d="M256.116 298.5V289.148H259.434L261.38 295.854L263.354 289.148H266.672V298.5H264.516V291.15L262.29 298.5H260.47L258.258 291.15V298.5H256.116ZM271.703 298.668C271.059 298.668 270.457 298.537 269.897 298.276C269.337 298.015 268.884 297.613 268.539 297.072C268.194 296.521 268.021 295.831 268.021 295C268.021 294.16 268.194 293.474 268.539 292.942C268.884 292.401 269.337 292.004 269.897 291.752C270.457 291.491 271.059 291.36 271.703 291.36C272.338 291.36 272.935 291.491 273.495 291.752C274.055 292.004 274.508 292.401 274.853 292.942C275.198 293.474 275.371 294.16 275.371 295C275.371 295.831 275.198 296.521 274.853 297.072C274.508 297.613 274.055 298.015 273.495 298.276C272.935 298.537 272.338 298.668 271.703 298.668ZM271.703 297.016C272.132 297.016 272.487 296.862 272.767 296.554C273.056 296.246 273.201 295.728 273.201 295C273.201 294.263 273.052 293.749 272.753 293.46C272.464 293.161 272.114 293.012 271.703 293.012C271.283 293.012 270.924 293.161 270.625 293.46C270.336 293.749 270.191 294.263 270.191 295C270.191 295.728 270.336 296.246 270.625 296.554C270.914 296.862 271.274 297.016 271.703 297.016ZM279.513 298.668C278.915 298.668 278.383 298.519 277.917 298.22C277.459 297.921 277.1 297.497 276.839 296.946C276.577 296.386 276.447 295.728 276.447 294.972C276.447 294.216 276.577 293.572 276.839 293.04C277.1 292.499 277.459 292.083 277.917 291.794C278.383 291.505 278.915 291.36 279.513 291.36C279.895 291.36 280.287 291.458 280.689 291.654C281.09 291.841 281.403 292.125 281.627 292.508V289.148H283.755V295.784C283.755 296.129 283.769 296.54 283.797 297.016C283.834 297.492 283.899 297.987 283.993 298.5H281.963L281.683 297.562C281.393 297.963 281.053 298.248 280.661 298.416C280.278 298.584 279.895 298.668 279.513 298.668ZM280.199 297.016C280.609 297.016 280.964 296.862 281.263 296.554C281.571 296.246 281.725 295.733 281.725 295.014C281.725 294.305 281.571 293.796 281.263 293.488C280.964 293.171 280.609 293.012 280.199 293.012C279.779 293.012 279.415 293.18 279.107 293.516C278.808 293.852 278.659 294.337 278.659 294.972C278.659 295.616 278.808 296.12 279.107 296.484C279.415 296.839 279.779 297.016 280.199 297.016ZM288.994 298.668C288.248 298.668 287.585 298.523 287.006 298.234C286.437 297.935 285.989 297.511 285.662 296.96C285.345 296.409 285.186 295.751 285.186 294.986C285.186 294.249 285.354 293.609 285.69 293.068C286.036 292.527 286.488 292.107 287.048 291.808C287.618 291.509 288.238 291.36 288.91 291.36C289.676 291.36 290.329 291.542 290.87 291.906C291.421 292.261 291.836 292.755 292.116 293.39C292.396 294.015 292.513 294.739 292.466 295.56H287.328C287.366 296.045 287.543 296.409 287.86 296.652C288.187 296.895 288.546 297.016 288.938 297.016C289.265 297.016 289.545 296.969 289.778 296.876C290.021 296.773 290.208 296.647 290.338 296.498L292.032 297.114C291.668 297.646 291.211 298.038 290.66 298.29C290.119 298.542 289.564 298.668 288.994 298.668ZM287.328 294.3H290.492C290.483 293.852 290.329 293.516 290.03 293.292C289.732 293.059 289.377 292.942 288.966 292.942C288.565 292.942 288.206 293.049 287.888 293.264C287.58 293.479 287.394 293.824 287.328 294.3ZM296.176 298.5C295.607 298.5 295.154 298.453 294.818 298.36C294.482 298.257 294.239 298.066 294.09 297.786C293.95 297.497 293.88 297.081 293.88 296.54V289.148H296.008V295.98C296.008 296.307 296.073 296.521 296.204 296.624C296.335 296.717 296.577 296.764 296.932 296.764H297.534V298.5H296.176ZM303.483 298.5V289.148H307.081C307.893 289.148 308.616 289.232 309.251 289.4C309.895 289.568 310.399 289.871 310.763 290.31C311.136 290.749 311.323 291.379 311.323 292.2C311.323 293.012 311.136 293.642 310.763 294.09C310.399 294.529 309.895 294.832 309.251 295C308.616 295.168 307.893 295.252 307.081 295.252H305.695V298.5H303.483ZM305.695 293.418H307.151C307.496 293.418 307.804 293.385 308.075 293.32C308.355 293.255 308.574 293.133 308.733 292.956C308.901 292.779 308.985 292.527 308.985 292.2C308.985 291.873 308.901 291.626 308.733 291.458C308.574 291.281 308.355 291.164 308.075 291.108C307.804 291.043 307.496 291.01 307.151 291.01H305.695V293.418ZM314.364 298.668C313.925 298.668 313.524 298.584 313.16 298.416C312.796 298.248 312.507 298.015 312.292 297.716C312.077 297.408 311.97 297.044 311.97 296.624C311.97 296.055 312.166 295.602 312.558 295.266C312.959 294.93 313.505 294.678 314.196 294.51C314.887 294.342 315.68 294.225 316.576 294.16C316.576 293.665 316.497 293.315 316.338 293.11C316.179 292.905 315.871 292.802 315.414 292.802C315.125 292.802 314.868 292.872 314.644 293.012C314.429 293.143 314.285 293.348 314.21 293.628L312.418 292.984C312.651 292.517 313.039 292.13 313.58 291.822C314.131 291.514 314.803 291.36 315.596 291.36C316.585 291.36 317.346 291.579 317.878 292.018C318.41 292.457 318.676 293.203 318.676 294.258V295.784C318.676 296.083 318.685 296.405 318.704 296.75C318.723 297.095 318.751 297.422 318.788 297.73C318.825 298.038 318.867 298.295 318.914 298.5H316.94L316.688 297.66C316.427 298.024 316.095 298.285 315.694 298.444C315.302 298.593 314.859 298.668 314.364 298.668ZM315.148 297.212C315.568 297.212 315.918 297.1 316.198 296.876C316.478 296.652 316.618 296.223 316.618 295.588V295.42C315.881 295.485 315.288 295.588 314.84 295.728C314.392 295.859 314.168 296.106 314.168 296.47C314.168 296.694 314.261 296.876 314.448 297.016C314.635 297.147 314.868 297.212 315.148 297.212ZM320.472 298.5V291.556H322.152L322.53 292.83C322.745 292.27 323.039 291.878 323.412 291.654C323.786 291.43 324.238 291.332 324.77 291.36V293.488C324.658 293.469 324.56 293.46 324.476 293.46C324.392 293.451 324.299 293.446 324.196 293.446C323.683 293.446 323.286 293.567 323.006 293.81C322.736 294.053 322.6 294.449 322.6 295V298.5H320.472ZM327.934 298.668C327.495 298.668 327.094 298.584 326.73 298.416C326.366 298.248 326.076 298.015 325.862 297.716C325.647 297.408 325.54 297.044 325.54 296.624C325.54 296.055 325.736 295.602 326.128 295.266C326.529 294.93 327.075 294.678 327.766 294.51C328.456 294.342 329.25 294.225 330.146 294.16C330.146 293.665 330.066 293.315 329.908 293.11C329.749 292.905 329.441 292.802 328.984 292.802C328.694 292.802 328.438 292.872 328.214 293.012C327.999 293.143 327.854 293.348 327.78 293.628L325.988 292.984C326.221 292.517 326.608 292.13 327.15 291.822C327.7 291.514 328.372 291.36 329.166 291.36C330.155 291.36 330.916 291.579 331.448 292.018C331.98 292.457 332.246 293.203 332.246 294.258V295.784C332.246 296.083 332.255 296.405 332.274 296.75C332.292 297.095 332.32 297.422 332.358 297.73C332.395 298.038 332.437 298.295 332.484 298.5H330.51L330.258 297.66C329.996 298.024 329.665 298.285 329.264 298.444C328.872 298.593 328.428 298.668 327.934 298.668ZM328.718 297.212C329.138 297.212 329.488 297.1 329.768 296.876C330.048 296.652 330.188 296.223 330.188 295.588V295.42C329.45 295.485 328.858 295.588 328.41 295.728C327.962 295.859 327.738 296.106 327.738 296.47C327.738 296.694 327.831 296.876 328.018 297.016C328.204 297.147 328.438 297.212 328.718 297.212ZM334.042 298.5V291.556H335.904L336.17 292.48C336.328 292.219 336.59 291.967 336.954 291.724C337.318 291.481 337.756 291.36 338.27 291.36C338.82 291.36 339.259 291.458 339.586 291.654C339.922 291.85 340.169 292.139 340.328 292.522C340.598 292.139 340.939 291.85 341.35 291.654C341.77 291.458 342.222 291.36 342.708 291.36C343.594 291.36 344.206 291.612 344.542 292.116C344.878 292.611 345.046 293.329 345.046 294.272V298.5H342.918V294.804C342.918 294.477 342.899 294.179 342.862 293.908C342.824 293.637 342.731 293.423 342.582 293.264C342.432 293.096 342.185 293.012 341.84 293.012C341.41 293.012 341.098 293.166 340.902 293.474C340.706 293.773 340.608 294.225 340.608 294.832V298.5H338.466V294.804C338.466 294.477 338.447 294.179 338.41 293.908C338.382 293.637 338.293 293.423 338.144 293.264C338.004 293.096 337.766 293.012 337.43 293.012C336.991 293.012 336.669 293.171 336.464 293.488C336.268 293.805 336.17 294.267 336.17 294.874V298.5H334.042ZM350.177 298.668C349.43 298.668 348.767 298.523 348.189 298.234C347.619 297.935 347.171 297.511 346.845 296.96C346.527 296.409 346.369 295.751 346.369 294.986C346.369 294.249 346.537 293.609 346.873 293.068C347.218 292.527 347.671 292.107 348.231 291.808C348.8 291.509 349.421 291.36 350.093 291.36C350.858 291.36 351.511 291.542 352.053 291.906C352.603 292.261 353.019 292.755 353.299 293.39C353.579 294.015 353.695 294.739 353.649 295.56H348.511C348.548 296.045 348.725 296.409 349.043 296.652C349.369 296.895 349.729 297.016 350.121 297.016C350.447 297.016 350.727 296.969 350.961 296.876C351.203 296.773 351.39 296.647 351.521 296.498L353.215 297.114C352.851 297.646 352.393 298.038 351.843 298.29C351.301 298.542 350.746 298.668 350.177 298.668ZM348.511 294.3H351.675C351.665 293.852 351.511 293.516 351.213 293.292C350.914 293.059 350.559 292.942 350.149 292.942C349.747 292.942 349.388 293.049 349.071 293.264C348.763 293.479 348.576 293.824 348.511 294.3ZM357.989 298.5C357.419 298.5 356.967 298.453 356.631 298.36C356.295 298.257 356.052 298.066 355.903 297.786C355.763 297.497 355.693 297.081 355.693 296.54V293.18H354.545V291.556H355.693V289.82H357.821V291.556H359.333V293.18H357.821V295.98C357.821 296.307 357.881 296.521 358.003 296.624C358.133 296.717 358.371 296.764 358.717 296.764H359.333V298.5H357.989ZM364.211 298.668C363.465 298.668 362.802 298.523 362.223 298.234C361.654 297.935 361.206 297.511 360.879 296.96C360.562 296.409 360.403 295.751 360.403 294.986C360.403 294.249 360.571 293.609 360.907 293.068C361.253 292.527 361.705 292.107 362.265 291.808C362.835 291.509 363.455 291.36 364.127 291.36C364.893 291.36 365.546 291.542 366.087 291.906C366.638 292.261 367.053 292.755 367.333 293.39C367.613 294.015 367.73 294.739 367.683 295.56H362.545C362.583 296.045 362.76 296.409 363.077 296.652C363.404 296.895 363.763 297.016 364.155 297.016C364.482 297.016 364.762 296.969 364.995 296.876C365.238 296.773 365.425 296.647 365.555 296.498L367.249 297.114C366.885 297.646 366.428 298.038 365.877 298.29C365.336 298.542 364.781 298.668 364.211 298.668ZM362.545 294.3H365.709C365.7 293.852 365.546 293.516 365.247 293.292C364.949 293.059 364.594 292.942 364.183 292.942C363.782 292.942 363.423 293.049 363.105 293.264C362.797 293.479 362.611 293.824 362.545 294.3ZM369.097 298.5V291.556H370.777L371.155 292.83C371.37 292.27 371.664 291.878 372.037 291.654C372.41 291.43 372.863 291.332 373.395 291.36V293.488C373.283 293.469 373.185 293.46 373.101 293.46C373.017 293.451 372.924 293.446 372.821 293.446C372.308 293.446 371.911 293.567 371.631 293.81C371.36 294.053 371.225 294.449 371.225 295V298.5H369.097ZM377.702 298.668C376.89 298.668 376.185 298.519 375.588 298.22C375 297.921 374.571 297.483 374.3 296.904L376.106 296.246C376.209 296.535 376.405 296.755 376.694 296.904C376.993 297.044 377.343 297.114 377.744 297.114C378.089 297.114 378.393 297.063 378.654 296.96C378.925 296.848 379.06 296.685 379.06 296.47C379.06 296.321 378.981 296.195 378.822 296.092C378.663 295.989 378.383 295.905 377.982 295.84L376.736 295.63C376.064 295.518 375.518 295.289 375.098 294.944C374.678 294.599 374.468 294.137 374.468 293.558C374.468 293.073 374.613 292.667 374.902 292.34C375.201 292.013 375.593 291.771 376.078 291.612C376.563 291.444 377.091 291.36 377.66 291.36C378.323 291.36 378.934 291.481 379.494 291.724C380.063 291.957 380.479 292.349 380.74 292.9L378.948 293.558C378.883 293.306 378.729 293.138 378.486 293.054C378.243 292.961 377.963 292.914 377.646 292.914C376.881 292.914 376.498 293.101 376.498 293.474C376.498 293.614 376.563 293.731 376.694 293.824C376.825 293.908 377.044 293.978 377.352 294.034L378.64 294.272C379.48 294.421 380.101 294.641 380.502 294.93C380.903 295.219 381.104 295.653 381.104 296.232C381.104 296.773 380.95 297.226 380.642 297.59C380.334 297.954 379.923 298.225 379.41 298.402C378.897 298.579 378.327 298.668 377.702 298.668Z" fill="white"/>
<rect x="32.5" y="374.5" width="173" height="189" stroke="#00C3E2"/>
<path d="M108.74 411.78C107.327 412.087 106.054 412.24 104.92 412.24C103.787 412.24 102.88 412.1 102.2 411.82C101.52 411.54 100.987 411.093 100.6 410.48C100.214 409.867 99.9469 409.147 99.8002 408.32C99.6536 407.493 99.5802 406.453 99.5802 405.2C99.5802 402.573 99.9469 400.747 100.68 399.72C101.427 398.68 102.794 398.16 104.78 398.16C105.927 398.16 107.254 398.34 108.76 398.7L108.68 400.9C107.36 400.7 106.26 400.6 105.38 400.6C104.514 400.6 103.894 400.72 103.52 400.96C103.147 401.187 102.867 401.627 102.68 402.28C102.507 402.933 102.42 404.047 102.42 405.62C102.42 407.193 102.6 408.287 102.96 408.9C103.334 409.5 104.067 409.8 105.16 409.8C106.267 409.8 107.44 409.707 108.68 409.52L108.74 411.78ZM110.523 403.14C111.23 402.22 112.41 401.76 114.063 401.76C115.717 401.76 116.897 402.22 117.603 403.14C118.31 404.047 118.663 405.327 118.663 406.98C118.663 410.487 117.13 412.24 114.063 412.24C110.997 412.24 109.463 410.487 109.463 406.98C109.463 405.327 109.817 404.047 110.523 403.14ZM112.583 409.24C112.863 409.72 113.357 409.96 114.063 409.96C114.77 409.96 115.257 409.72 115.523 409.24C115.803 408.76 115.943 408.007 115.943 406.98C115.943 405.953 115.803 405.207 115.523 404.74C115.257 404.273 114.77 404.04 114.063 404.04C113.357 404.04 112.863 404.273 112.583 404.74C112.317 405.207 112.183 405.953 112.183 406.98C112.183 408.007 112.317 408.76 112.583 409.24ZM128.528 398V412H125.868V411.58C124.935 412.02 124.128 412.24 123.448 412.24C121.995 412.24 120.981 411.82 120.408 410.98C119.835 410.14 119.548 408.813 119.548 407C119.548 405.173 119.888 403.847 120.568 403.02C121.261 402.18 122.301 401.76 123.688 401.76C124.115 401.76 124.708 401.827 125.468 401.96L125.848 402.04V398H128.528ZM125.568 409.6L125.848 409.54V404.28C125.115 404.147 124.461 404.08 123.888 404.08C122.808 404.08 122.268 405.04 122.268 406.96C122.268 408 122.388 408.74 122.628 409.18C122.868 409.62 123.261 409.84 123.808 409.84C124.368 409.84 124.955 409.76 125.568 409.6ZM132.604 408.14C132.618 408.753 132.778 409.2 133.084 409.48C133.404 409.747 133.858 409.88 134.444 409.88C135.684 409.88 136.791 409.84 137.764 409.76L138.324 409.7L138.364 411.68C136.831 412.053 135.444 412.24 134.204 412.24C132.698 412.24 131.604 411.84 130.924 411.04C130.244 410.24 129.904 408.94 129.904 407.14C129.904 403.553 131.378 401.76 134.324 401.76C137.231 401.76 138.684 403.267 138.684 406.28L138.484 408.14H132.604ZM136.044 406.1C136.044 405.3 135.918 404.747 135.664 404.44C135.411 404.12 134.964 403.96 134.324 403.96C133.698 403.96 133.251 404.127 132.984 404.46C132.731 404.78 132.598 405.327 132.584 406.1H136.044Z" fill="#ECECEC"/>
<rect width="142" height="48" transform="translate(48 436)" fill="#00C3E2"/>
<path d="M82.116 464.5V455.148H84.93L88.542 461.812V455.148H90.684V464.5H87.856L84.244 457.836V464.5H82.116ZM95.7207 464.668C95.0767 464.668 94.4747 464.537 93.9147 464.276C93.3547 464.015 92.9021 463.613 92.5567 463.072C92.2114 462.521 92.0387 461.831 92.0387 461C92.0387 460.16 92.2114 459.474 92.5567 458.942C92.9021 458.401 93.3547 458.004 93.9147 457.752C94.4747 457.491 95.0767 457.36 95.7207 457.36C96.3554 457.36 96.9527 457.491 97.5127 457.752C98.0727 458.004 98.5254 458.401 98.8707 458.942C99.2161 459.474 99.3887 460.16 99.3887 461C99.3887 461.831 99.2161 462.521 98.8707 463.072C98.5254 463.613 98.0727 464.015 97.5127 464.276C96.9527 464.537 96.3554 464.668 95.7207 464.668ZM95.7207 463.016C96.1501 463.016 96.5047 462.862 96.7847 462.554C97.0741 462.246 97.2187 461.728 97.2187 461C97.2187 460.263 97.0694 459.749 96.7707 459.46C96.4814 459.161 96.1314 459.012 95.7207 459.012C95.3007 459.012 94.9414 459.161 94.6427 459.46C94.3534 459.749 94.2087 460.263 94.2087 461C94.2087 461.728 94.3534 462.246 94.6427 462.554C94.9321 462.862 95.2914 463.016 95.7207 463.016ZM103.754 464.5C103.185 464.5 102.732 464.453 102.396 464.36C102.06 464.257 101.817 464.066 101.668 463.786C101.528 463.497 101.458 463.081 101.458 462.54V459.18H100.31V457.556H101.458V455.82H103.586V457.556H105.098V459.18H103.586V461.98C103.586 462.307 103.647 462.521 103.768 462.624C103.899 462.717 104.137 462.764 104.482 462.764H105.098V464.5H103.754ZM109.977 464.668C109.23 464.668 108.567 464.523 107.989 464.234C107.419 463.935 106.971 463.511 106.645 462.96C106.327 462.409 106.169 461.751 106.169 460.986C106.169 460.249 106.337 459.609 106.673 459.068C107.018 458.527 107.471 458.107 108.031 457.808C108.6 457.509 109.221 457.36 109.893 457.36C110.658 457.36 111.311 457.542 111.853 457.906C112.403 458.261 112.819 458.755 113.099 459.39C113.379 460.015 113.495 460.739 113.449 461.56H108.311C108.348 462.045 108.525 462.409 108.843 462.652C109.169 462.895 109.529 463.016 109.921 463.016C110.247 463.016 110.527 462.969 110.761 462.876C111.003 462.773 111.19 462.647 111.321 462.498L113.015 463.114C112.651 463.646 112.193 464.038 111.643 464.29C111.101 464.542 110.546 464.668 109.977 464.668ZM108.311 460.3H111.475C111.465 459.852 111.311 459.516 111.013 459.292C110.714 459.059 110.359 458.942 109.949 458.942C109.547 458.942 109.188 459.049 108.871 459.264C108.563 459.479 108.376 459.824 108.311 460.3ZM119.104 464.668C118.731 464.668 118.339 464.579 117.928 464.402C117.527 464.225 117.214 463.945 116.99 463.562L116.724 464.5H114.862V455.148H116.99V458.508C117.214 458.125 117.527 457.841 117.928 457.654C118.339 457.458 118.731 457.36 119.104 457.36C119.702 457.36 120.229 457.505 120.686 457.794C121.153 458.083 121.517 458.499 121.778 459.04C122.04 459.572 122.17 460.216 122.17 460.972C122.17 461.728 122.04 462.386 121.778 462.946C121.517 463.497 121.153 463.921 120.686 464.22C120.229 464.519 119.702 464.668 119.104 464.668ZM118.432 463.016C118.843 463.016 119.198 462.839 119.496 462.484C119.804 462.12 119.958 461.616 119.958 460.972C119.958 460.337 119.804 459.852 119.496 459.516C119.198 459.18 118.843 459.012 118.432 459.012C118.012 459.012 117.648 459.171 117.34 459.488C117.042 459.796 116.892 460.305 116.892 461.014C116.892 461.733 117.042 462.246 117.34 462.554C117.648 462.862 118.012 463.016 118.432 463.016ZM126.92 464.668C126.276 464.668 125.674 464.537 125.114 464.276C124.554 464.015 124.102 463.613 123.756 463.072C123.411 462.521 123.238 461.831 123.238 461C123.238 460.16 123.411 459.474 123.756 458.942C124.102 458.401 124.554 458.004 125.114 457.752C125.674 457.491 126.276 457.36 126.92 457.36C127.555 457.36 128.152 457.491 128.712 457.752C129.272 458.004 129.725 458.401 130.07 458.942C130.416 459.474 130.588 460.16 130.588 461C130.588 461.831 130.416 462.521 130.07 463.072C129.725 463.613 129.272 464.015 128.712 464.276C128.152 464.537 127.555 464.668 126.92 464.668ZM126.92 463.016C127.35 463.016 127.704 462.862 127.984 462.554C128.274 462.246 128.418 461.728 128.418 461C128.418 460.263 128.269 459.749 127.97 459.46C127.681 459.161 127.331 459.012 126.92 459.012C126.5 459.012 126.141 459.161 125.842 459.46C125.553 459.749 125.408 460.263 125.408 461C125.408 461.728 125.553 462.246 125.842 462.554C126.132 462.862 126.491 463.016 126.92 463.016ZM135.346 464.668C134.702 464.668 134.1 464.537 133.54 464.276C132.98 464.015 132.527 463.613 132.182 463.072C131.836 462.521 131.664 461.831 131.664 461C131.664 460.16 131.836 459.474 132.182 458.942C132.527 458.401 132.98 458.004 133.54 457.752C134.1 457.491 134.702 457.36 135.346 457.36C135.98 457.36 136.578 457.491 137.138 457.752C137.698 458.004 138.15 458.401 138.496 458.942C138.841 459.474 139.014 460.16 139.014 461C139.014 461.831 138.841 462.521 138.496 463.072C138.15 463.613 137.698 464.015 137.138 464.276C136.578 464.537 135.98 464.668 135.346 464.668ZM135.346 463.016C135.775 463.016 136.13 462.862 136.41 462.554C136.699 462.246 136.844 461.728 136.844 461C136.844 460.263 136.694 459.749 136.396 459.46C136.106 459.161 135.756 459.012 135.346 459.012C134.926 459.012 134.566 459.161 134.268 459.46C133.978 459.749 133.834 460.263 133.834 461C133.834 461.728 133.978 462.246 134.268 462.554C134.557 462.862 134.916 463.016 135.346 463.016ZM140.453 464.5V455.148H142.581V460.188L144.905 457.556H147.425L144.709 460.454L147.635 464.5H145.115L143.309 461.98L142.581 462.75V464.5H140.453ZM151.792 464.668C150.98 464.668 150.276 464.519 149.678 464.22C149.09 463.921 148.661 463.483 148.39 462.904L150.196 462.246C150.299 462.535 150.495 462.755 150.784 462.904C151.083 463.044 151.433 463.114 151.834 463.114C152.18 463.114 152.483 463.063 152.744 462.96C153.015 462.848 153.15 462.685 153.15 462.47C153.15 462.321 153.071 462.195 152.912 462.092C152.754 461.989 152.474 461.905 152.072 461.84L150.826 461.63C150.154 461.518 149.608 461.289 149.188 460.944C148.768 460.599 148.558 460.137 148.558 459.558C148.558 459.073 148.703 458.667 148.992 458.34C149.291 458.013 149.683 457.771 150.168 457.612C150.654 457.444 151.181 457.36 151.75 457.36C152.413 457.36 153.024 457.481 153.584 457.724C154.154 457.957 154.569 458.349 154.83 458.9L153.038 459.558C152.973 459.306 152.819 459.138 152.576 459.054C152.334 458.961 152.054 458.914 151.736 458.914C150.971 458.914 150.588 459.101 150.588 459.474C150.588 459.614 150.654 459.731 150.784 459.824C150.915 459.908 151.134 459.978 151.442 460.034L152.73 460.272C153.57 460.421 154.191 460.641 154.592 460.93C154.994 461.219 155.194 461.653 155.194 462.232C155.194 462.773 155.04 463.226 154.732 463.59C154.424 463.954 154.014 464.225 153.5 464.402C152.987 464.579 152.418 464.668 151.792 464.668Z" fill="#121212"/>
<rect width="142" height="48" transform="translate(48 500)" fill="#00C3E2"/>
<path d="M68.116 528.5V519.148H71.714C72.526 519.148 73.2493 519.232 73.884 519.4C74.528 519.568 75.032 519.871 75.396 520.31C75.7693 520.749 75.956 521.379 75.956 522.2C75.956 523.012 75.7693 523.642 75.396 524.09C75.032 524.529 74.528 524.832 73.884 525C73.2493 525.168 72.526 525.252 71.714 525.252H70.328V528.5H68.116ZM70.328 523.418H71.784C72.1293 523.418 72.4373 523.385 72.708 523.32C72.988 523.255 73.2073 523.133 73.366 522.956C73.534 522.779 73.618 522.527 73.618 522.2C73.618 521.873 73.534 521.626 73.366 521.458C73.2073 521.281 72.988 521.164 72.708 521.108C72.4373 521.043 72.1293 521.01 71.784 521.01H70.328V523.418ZM77.5737 530.754V529.214H77.9937C78.311 529.214 78.549 529.2 78.7077 529.172C78.8663 529.144 78.9877 529.074 79.0717 528.962C79.165 528.859 79.249 528.691 79.3237 528.458L76.6637 521.556H78.9457L80.3037 525.896L81.6337 521.556H83.9157L81.2557 528.5C81.0317 529.088 80.803 529.545 80.5697 529.872C80.3457 530.199 80.0563 530.427 79.7017 530.558C79.347 530.689 78.8663 530.754 78.2597 530.754H77.5737ZM87.9358 528.5C87.3664 528.5 86.9138 528.453 86.5778 528.36C86.2418 528.257 85.9991 528.066 85.8498 527.786C85.7098 527.497 85.6398 527.081 85.6398 526.54V523.18H84.4918V521.556H85.6398V519.82H87.7678V521.556H89.2798V523.18H87.7678V525.98C87.7678 526.307 87.8284 526.521 87.9498 526.624C88.0804 526.717 88.3184 526.764 88.6638 526.764H89.2798V528.5H87.9358ZM90.7145 528.5V519.148H92.8425V522.48C93.0011 522.219 93.2625 521.967 93.6265 521.724C93.9998 521.481 94.4525 521.36 94.9845 521.36C95.8805 521.36 96.4918 521.612 96.8185 522.116C97.1545 522.611 97.3225 523.329 97.3225 524.272V528.5H95.1945V524.804C95.1945 524.477 95.1758 524.179 95.1385 523.908C95.1011 523.637 95.0078 523.423 94.8585 523.264C94.7185 523.096 94.4758 523.012 94.1305 523.012C93.6825 523.012 93.3558 523.175 93.1505 523.502C92.9451 523.819 92.8425 524.295 92.8425 524.93V528.5H90.7145ZM102.335 528.668C101.691 528.668 101.089 528.537 100.529 528.276C99.9688 528.015 99.5161 527.613 99.1708 527.072C98.8255 526.521 98.6528 525.831 98.6528 525C98.6528 524.16 98.8255 523.474 99.1708 522.942C99.5161 522.401 99.9688 522.004 100.529 521.752C101.089 521.491 101.691 521.36 102.335 521.36C102.969 521.36 103.567 521.491 104.127 521.752C104.687 522.004 105.139 522.401 105.485 522.942C105.83 523.474 106.003 524.16 106.003 525C106.003 525.831 105.83 526.521 105.485 527.072C105.139 527.613 104.687 528.015 104.127 528.276C103.567 528.537 102.969 528.668 102.335 528.668ZM102.335 527.016C102.764 527.016 103.119 526.862 103.399 526.554C103.688 526.246 103.833 525.728 103.833 525C103.833 524.263 103.683 523.749 103.385 523.46C103.095 523.161 102.745 523.012 102.335 523.012C101.915 523.012 101.555 523.161 101.257 523.46C100.967 523.749 100.823 524.263 100.823 525C100.823 525.728 100.967 526.246 101.257 526.554C101.546 526.862 101.905 527.016 102.335 527.016ZM107.442 528.5V521.556H109.304L109.57 522.48C109.729 522.219 109.99 521.967 110.354 521.724C110.728 521.481 111.18 521.36 111.712 521.36C112.608 521.36 113.22 521.612 113.546 522.116C113.882 522.611 114.05 523.329 114.05 524.272V528.5H111.922V524.804C111.922 524.477 111.904 524.179 111.866 523.908C111.829 523.637 111.736 523.423 111.586 523.264C111.446 523.096 111.204 523.012 110.858 523.012C110.41 523.012 110.084 523.175 109.878 523.502C109.673 523.819 109.57 524.295 109.57 524.93V528.5H107.442ZM124.434 528.668C123.417 528.668 122.558 528.463 121.858 528.052C121.168 527.632 120.678 527.049 120.388 526.302L122.404 525.574C122.535 526.022 122.778 526.353 123.132 526.568C123.496 526.783 123.935 526.89 124.448 526.89C124.719 526.89 124.98 526.862 125.232 526.806C125.484 526.741 125.694 526.638 125.862 526.498C126.03 526.349 126.114 526.153 126.114 525.91C126.114 525.583 125.956 525.331 125.638 525.154C125.321 524.967 124.91 524.827 124.406 524.734L123.272 524.51C122.768 524.407 122.297 524.253 121.858 524.048C121.429 523.833 121.084 523.553 120.822 523.208C120.561 522.853 120.43 522.41 120.43 521.878C120.43 521.374 120.547 520.94 120.78 520.576C121.014 520.212 121.322 519.913 121.704 519.68C122.096 519.447 122.526 519.274 122.992 519.162C123.459 519.041 123.926 518.98 124.392 518.98C124.896 518.98 125.382 519.05 125.848 519.19C126.324 519.33 126.749 519.549 127.122 519.848C127.496 520.137 127.78 520.525 127.976 521.01L125.974 521.738C125.853 521.421 125.634 521.178 125.316 521.01C125.008 520.842 124.635 520.758 124.196 520.758C123.767 520.758 123.408 520.837 123.118 520.996C122.838 521.145 122.698 521.365 122.698 521.654C122.698 521.887 122.796 522.088 122.992 522.256C123.188 522.424 123.445 522.541 123.762 522.606L125.022 522.858C125.405 522.933 125.792 523.031 126.184 523.152C126.576 523.264 126.936 523.418 127.262 523.614C127.598 523.801 127.869 524.053 128.074 524.37C128.28 524.687 128.382 525.089 128.382 525.574C128.382 526.069 128.266 526.512 128.032 526.904C127.808 527.287 127.505 527.609 127.122 527.87C126.749 528.131 126.329 528.332 125.862 528.472C125.396 528.603 124.92 528.668 124.434 528.668ZM132.998 528.668C132.233 528.668 131.584 528.514 131.052 528.206C130.53 527.898 130.128 527.469 129.848 526.918C129.578 526.358 129.442 525.714 129.442 524.986C129.442 524.258 129.592 523.623 129.89 523.082C130.189 522.531 130.604 522.107 131.136 521.808C131.678 521.509 132.298 521.36 132.998 521.36C133.4 521.36 133.796 521.416 134.188 521.528C134.59 521.64 134.958 521.831 135.294 522.102C135.64 522.363 135.92 522.723 136.134 523.18L134.356 523.824C134.244 523.525 134.076 523.315 133.852 523.194C133.638 523.073 133.395 523.012 133.124 523.012C132.872 523.012 132.63 523.077 132.396 523.208C132.163 523.329 131.972 523.535 131.822 523.824C131.682 524.113 131.612 524.505 131.612 525C131.612 525.504 131.687 525.905 131.836 526.204C131.986 526.493 132.172 526.703 132.396 526.834C132.63 526.955 132.872 527.016 133.124 527.016C133.423 527.016 133.675 526.96 133.88 526.848C134.086 526.727 134.249 526.563 134.37 526.358L136.106 526.988C135.873 527.408 135.584 527.744 135.238 527.996C134.893 528.239 134.524 528.411 134.132 528.514C133.75 528.617 133.372 528.668 132.998 528.668ZM137.48 528.5V521.556H139.16L139.538 522.83C139.752 522.27 140.046 521.878 140.42 521.654C140.793 521.43 141.246 521.332 141.778 521.36V523.488C141.666 523.469 141.568 523.46 141.484 523.46C141.4 523.451 141.306 523.446 141.204 523.446C140.69 523.446 140.294 523.567 140.014 523.81C139.743 524.053 139.608 524.449 139.608 525V528.5H137.48ZM145.324 520.408C144.978 520.408 144.68 520.287 144.428 520.044C144.185 519.792 144.064 519.493 144.064 519.148C144.064 518.793 144.185 518.495 144.428 518.252C144.68 518.009 144.978 517.888 145.324 517.888C145.678 517.888 145.977 518.009 146.22 518.252C146.462 518.495 146.584 518.793 146.584 519.148C146.584 519.493 146.462 519.792 146.22 520.044C145.977 520.287 145.678 520.408 145.324 520.408ZM144.246 528.5V523.18H142.93V521.556H146.388V528.5H144.246ZM148.11 530.754V521.556H149.958L150.238 522.508C150.462 522.125 150.774 521.841 151.176 521.654C151.586 521.458 151.978 521.36 152.352 521.36C152.949 521.36 153.476 521.509 153.934 521.808C154.4 522.107 154.764 522.531 155.026 523.082C155.287 523.623 155.418 524.272 155.418 525.028C155.418 525.784 155.287 526.437 155.026 526.988C154.764 527.529 154.4 527.945 153.934 528.234C153.476 528.523 152.949 528.668 152.352 528.668C151.978 528.668 151.586 528.57 151.176 528.374C150.774 528.178 150.462 527.889 150.238 527.506V530.754H148.11ZM151.68 527.016C152.09 527.016 152.445 526.848 152.744 526.512C153.052 526.176 153.206 525.681 153.206 525.028C153.206 524.393 153.052 523.899 152.744 523.544C152.445 523.189 152.09 523.012 151.68 523.012C151.26 523.012 150.896 523.161 150.588 523.46C150.289 523.759 150.14 524.267 150.14 524.986C150.14 525.695 150.289 526.213 150.588 526.54C150.896 526.857 151.26 527.016 151.68 527.016ZM159.776 528.5C159.206 528.5 158.754 528.453 158.418 528.36C158.082 528.257 157.839 528.066 157.69 527.786C157.55 527.497 157.48 527.081 157.48 526.54V523.18H156.332V521.556H157.48V519.82H159.608V521.556H161.12V523.18H159.608V525.98C159.608 526.307 159.668 526.521 159.79 526.624C159.92 526.717 160.158 526.764 160.504 526.764H161.12V528.5H159.776ZM165.55 528.668C164.738 528.668 164.034 528.519 163.436 528.22C162.848 527.921 162.419 527.483 162.148 526.904L163.954 526.246C164.057 526.535 164.253 526.755 164.542 526.904C164.841 527.044 165.191 527.114 165.592 527.114C165.938 527.114 166.241 527.063 166.502 526.96C166.773 526.848 166.908 526.685 166.908 526.47C166.908 526.321 166.829 526.195 166.67 526.092C166.512 525.989 166.232 525.905 165.83 525.84L164.584 525.63C163.912 525.518 163.366 525.289 162.946 524.944C162.526 524.599 162.316 524.137 162.316 523.558C162.316 523.073 162.461 522.667 162.75 522.34C163.049 522.013 163.441 521.771 163.926 521.612C164.412 521.444 164.939 521.36 165.508 521.36C166.171 521.36 166.782 521.481 167.342 521.724C167.912 521.957 168.327 522.349 168.588 522.9L166.796 523.558C166.731 523.306 166.577 523.138 166.334 523.054C166.092 522.961 165.812 522.914 165.494 522.914C164.729 522.914 164.346 523.101 164.346 523.474C164.346 523.614 164.412 523.731 164.542 523.824C164.673 523.908 164.892 523.978 165.2 524.034L166.488 524.272C167.328 524.421 167.949 524.641 168.35 524.93C168.752 525.219 168.952 525.653 168.952 526.232C168.952 526.773 168.798 527.226 168.49 527.59C168.182 527.954 167.772 528.225 167.258 528.402C166.745 528.579 166.176 528.668 165.55 528.668Z" fill="#121212"/>
<rect x="246.5" y="374.5" width="173" height="189" stroke="#BC7EFF"/>
<path d="M302.752 412H298.172V398.4H302.752C303.925 398.4 304.892 398.527 305.652 398.78C306.412 399.02 306.998 399.427 307.412 400C307.838 400.56 308.132 401.227 308.292 402C308.452 402.76 308.532 403.753 308.532 404.98C308.532 406.207 308.458 407.227 308.312 408.04C308.165 408.84 307.885 409.56 307.472 410.2C307.072 410.827 306.485 411.287 305.712 411.58C304.938 411.86 303.952 412 302.752 412ZM305.652 406.6C305.678 406.173 305.692 405.587 305.692 404.84C305.692 404.08 305.665 403.473 305.612 403.02C305.558 402.567 305.432 402.153 305.232 401.78C305.032 401.407 304.732 401.153 304.332 401.02C303.945 400.873 303.418 400.8 302.752 400.8H300.932V409.6H302.752C303.752 409.6 304.478 409.347 304.932 408.84C305.318 408.427 305.558 407.68 305.652 406.6ZM317.746 405.12V409.28C317.772 409.6 317.826 409.827 317.906 409.96C317.986 410.08 318.152 410.167 318.406 410.22L318.326 412.24C317.646 412.24 317.099 412.193 316.686 412.1C316.286 412.007 315.879 411.82 315.466 411.54C314.506 412.007 313.526 412.24 312.526 412.24C310.459 412.24 309.426 411.147 309.426 408.96C309.426 407.893 309.712 407.14 310.286 406.7C310.859 406.247 311.739 405.98 312.926 405.9L315.066 405.74V405.12C315.066 404.707 314.972 404.427 314.786 404.28C314.599 404.12 314.299 404.04 313.886 404.04L310.126 404.2L310.046 402.34C311.472 401.953 312.826 401.76 314.106 401.76C315.399 401.76 316.326 402.027 316.886 402.56C317.459 403.093 317.746 403.947 317.746 405.12ZM313.246 407.76C312.499 407.827 312.126 408.227 312.126 408.96C312.126 409.693 312.452 410.06 313.106 410.06C313.612 410.06 314.166 409.98 314.766 409.82L315.066 409.74V407.6L313.246 407.76ZM325.241 404.28H322.781V408.38C322.781 408.78 322.787 409.067 322.801 409.24C322.827 409.4 322.901 409.54 323.021 409.66C323.154 409.78 323.354 409.84 323.621 409.84L325.141 409.8L325.261 411.94C324.367 412.14 323.687 412.24 323.221 412.24C322.021 412.24 321.201 411.973 320.761 411.44C320.321 410.893 320.101 409.893 320.101 408.44V404.28H318.921V402H320.101V399.22H322.781V402H325.241V404.28ZM334.046 405.12V409.28C334.072 409.6 334.126 409.827 334.206 409.96C334.286 410.08 334.452 410.167 334.706 410.22L334.626 412.24C333.946 412.24 333.399 412.193 332.986 412.1C332.586 412.007 332.179 411.82 331.766 411.54C330.806 412.007 329.826 412.24 328.826 412.24C326.759 412.24 325.726 411.147 325.726 408.96C325.726 407.893 326.012 407.14 326.586 406.7C327.159 406.247 328.039 405.98 329.226 405.9L331.366 405.74V405.12C331.366 404.707 331.272 404.427 331.086 404.28C330.899 404.12 330.599 404.04 330.186 404.04L326.426 404.2L326.346 402.34C327.772 401.953 329.126 401.76 330.406 401.76C331.699 401.76 332.626 402.027 333.186 402.56C333.759 403.093 334.046 403.947 334.046 405.12ZM329.546 407.76C328.799 407.827 328.426 408.227 328.426 408.96C328.426 409.693 328.752 410.06 329.406 410.06C329.912 410.06 330.466 409.98 331.066 409.82L331.366 409.74V407.6L329.546 407.76ZM343.181 404.5C341.527 404.287 340.367 404.18 339.701 404.18C339.047 404.18 338.621 404.24 338.421 404.36C338.234 404.48 338.141 404.673 338.141 404.94C338.141 405.193 338.267 405.373 338.521 405.48C338.787 405.573 339.454 405.72 340.521 405.92C341.601 406.107 342.367 406.42 342.821 406.86C343.274 407.3 343.501 408.013 343.501 409C343.501 411.16 342.161 412.24 339.481 412.24C338.601 412.24 337.534 412.12 336.281 411.88L335.641 411.76L335.721 409.52C337.374 409.733 338.521 409.84 339.161 409.84C339.814 409.84 340.254 409.78 340.481 409.66C340.721 409.527 340.841 409.333 340.841 409.08C340.841 408.827 340.714 408.64 340.461 408.52C340.221 408.4 339.581 408.253 338.541 408.08C337.514 407.907 336.747 407.613 336.241 407.2C335.734 406.787 335.481 406.053 335.481 405C335.481 403.933 335.841 403.133 336.561 402.6C337.281 402.053 338.207 401.78 339.341 401.78C340.127 401.78 341.201 401.907 342.561 402.16L343.221 402.28L343.181 404.5ZM347.034 408.14C347.047 408.753 347.207 409.2 347.514 409.48C347.834 409.747 348.287 409.88 348.874 409.88C350.114 409.88 351.221 409.84 352.194 409.76L352.754 409.7L352.794 411.68C351.261 412.053 349.874 412.24 348.634 412.24C347.127 412.24 346.034 411.84 345.354 411.04C344.674 410.24 344.334 408.94 344.334 407.14C344.334 403.553 345.807 401.76 348.754 401.76C351.661 401.76 353.114 403.267 353.114 406.28L352.914 408.14H347.034ZM350.474 406.1C350.474 405.3 350.347 404.747 350.094 404.44C349.841 404.12 349.394 403.96 348.754 403.96C348.127 403.96 347.681 404.127 347.414 404.46C347.161 404.78 347.027 405.327 347.014 406.1H350.474ZM359.969 404.28H357.509V408.38C357.509 408.78 357.516 409.067 357.529 409.24C357.556 409.4 357.629 409.54 357.749 409.66C357.883 409.78 358.083 409.84 358.349 409.84L359.869 409.8L359.989 411.94C359.096 412.14 358.416 412.24 357.949 412.24C356.749 412.24 355.929 411.973 355.489 411.44C355.049 410.893 354.829 409.893 354.829 408.44V404.28H353.649V402H354.829V399.22H357.509V402H359.969V404.28ZM368.295 404.5C366.641 404.287 365.481 404.18 364.815 404.18C364.161 404.18 363.735 404.24 363.535 404.36C363.348 404.48 363.255 404.673 363.255 404.94C363.255 405.193 363.381 405.373 363.635 405.48C363.901 405.573 364.568 405.72 365.635 405.92C366.715 406.107 367.481 406.42 367.935 406.86C368.388 407.3 368.615 408.013 368.615 409C368.615 411.16 367.275 412.24 364.595 412.24C363.715 412.24 362.648 412.12 361.395 411.88L360.755 411.76L360.835 409.52C362.488 409.733 363.635 409.84 364.275 409.84C364.928 409.84 365.368 409.78 365.595 409.66C365.835 409.527 365.955 409.333 365.955 409.08C365.955 408.827 365.828 408.64 365.575 408.52C365.335 408.4 364.695 408.253 363.655 408.08C362.628 407.907 361.861 407.613 361.355 407.2C360.848 406.787 360.595 406.053 360.595 405C360.595 403.933 360.955 403.133 361.675 402.6C362.395 402.053 363.321 401.78 364.455 401.78C365.241 401.78 366.315 401.907 367.675 402.16L368.335 402.28L368.295 404.5Z" fill="#ECECEC"/>
<rect width="142" height="48" transform="translate(262 436)" fill="#BC7EFF"/>
<path d="M300.804 464.5L297.64 455.148H299.936L302.078 462.022L304.234 455.148H306.544L303.366 464.5H300.804ZM309.284 464.668C308.846 464.668 308.444 464.584 308.08 464.416C307.716 464.248 307.427 464.015 307.212 463.716C306.998 463.408 306.89 463.044 306.89 462.624C306.89 462.055 307.086 461.602 307.478 461.266C307.88 460.93 308.426 460.678 309.116 460.51C309.807 460.342 310.6 460.225 311.496 460.16C311.496 459.665 311.417 459.315 311.258 459.11C311.1 458.905 310.792 458.802 310.334 458.802C310.045 458.802 309.788 458.872 309.564 459.012C309.35 459.143 309.205 459.348 309.13 459.628L307.338 458.984C307.572 458.517 307.959 458.13 308.5 457.822C309.051 457.514 309.723 457.36 310.516 457.36C311.506 457.36 312.266 457.579 312.798 458.018C313.33 458.457 313.596 459.203 313.596 460.258V461.784C313.596 462.083 313.606 462.405 313.624 462.75C313.643 463.095 313.671 463.422 313.708 463.73C313.746 464.038 313.788 464.295 313.834 464.5H311.86L311.608 463.66C311.347 464.024 311.016 464.285 310.614 464.444C310.222 464.593 309.779 464.668 309.284 464.668ZM310.068 463.212C310.488 463.212 310.838 463.1 311.118 462.876C311.398 462.652 311.538 462.223 311.538 461.588V461.42C310.801 461.485 310.208 461.588 309.76 461.728C309.312 461.859 309.088 462.106 309.088 462.47C309.088 462.694 309.182 462.876 309.368 463.016C309.555 463.147 309.788 463.212 310.068 463.212ZM317.689 464.5C317.119 464.5 316.667 464.453 316.331 464.36C315.995 464.257 315.752 464.066 315.603 463.786C315.463 463.497 315.393 463.081 315.393 462.54V455.148H317.521V461.98C317.521 462.307 317.586 462.521 317.717 462.624C317.847 462.717 318.09 462.764 318.445 462.764H319.047V464.5H317.689ZM321.842 456.408C321.497 456.408 321.198 456.287 320.946 456.044C320.703 455.792 320.582 455.493 320.582 455.148C320.582 454.793 320.703 454.495 320.946 454.252C321.198 454.009 321.497 453.888 321.842 453.888C322.197 453.888 322.495 454.009 322.738 454.252C322.981 454.495 323.102 454.793 323.102 455.148C323.102 455.493 322.981 455.792 322.738 456.044C322.495 456.287 322.197 456.408 321.842 456.408ZM320.764 464.5V459.18H319.448V457.556H322.906V464.5H320.764ZM327.33 464.668C326.733 464.668 326.201 464.519 325.734 464.22C325.277 463.921 324.917 463.497 324.656 462.946C324.395 462.386 324.264 461.728 324.264 460.972C324.264 460.216 324.395 459.572 324.656 459.04C324.917 458.499 325.277 458.083 325.734 457.794C326.201 457.505 326.733 457.36 327.33 457.36C327.713 457.36 328.105 457.458 328.506 457.654C328.907 457.841 329.22 458.125 329.444 458.508V455.148H331.572V461.784C331.572 462.129 331.586 462.54 331.614 463.016C331.651 463.492 331.717 463.987 331.81 464.5H329.78L329.5 463.562C329.211 463.963 328.87 464.248 328.478 464.416C328.095 464.584 327.713 464.668 327.33 464.668ZM328.016 463.016C328.427 463.016 328.781 462.862 329.08 462.554C329.388 462.246 329.542 461.733 329.542 461.014C329.542 460.305 329.388 459.796 329.08 459.488C328.781 459.171 328.427 459.012 328.016 459.012C327.596 459.012 327.232 459.18 326.924 459.516C326.625 459.852 326.476 460.337 326.476 460.972C326.476 461.616 326.625 462.12 326.924 462.484C327.232 462.839 327.596 463.016 328.016 463.016ZM335.398 464.668C334.959 464.668 334.558 464.584 334.194 464.416C333.83 464.248 333.541 464.015 333.326 463.716C333.111 463.408 333.004 463.044 333.004 462.624C333.004 462.055 333.2 461.602 333.592 461.266C333.993 460.93 334.539 460.678 335.23 460.51C335.921 460.342 336.714 460.225 337.61 460.16C337.61 459.665 337.531 459.315 337.372 459.11C337.213 458.905 336.905 458.802 336.448 458.802C336.159 458.802 335.902 458.872 335.678 459.012C335.463 459.143 335.319 459.348 335.244 459.628L333.452 458.984C333.685 458.517 334.073 458.13 334.614 457.822C335.165 457.514 335.837 457.36 336.63 457.36C337.619 457.36 338.38 457.579 338.912 458.018C339.444 458.457 339.71 459.203 339.71 460.258V461.784C339.71 462.083 339.719 462.405 339.738 462.75C339.757 463.095 339.785 463.422 339.822 463.73C339.859 464.038 339.901 464.295 339.948 464.5H337.974L337.722 463.66C337.461 464.024 337.129 464.285 336.728 464.444C336.336 464.593 335.893 464.668 335.398 464.668ZM336.182 463.212C336.602 463.212 336.952 463.1 337.232 462.876C337.512 462.652 337.652 462.223 337.652 461.588V461.42C336.915 461.485 336.322 461.588 335.874 461.728C335.426 461.859 335.202 462.106 335.202 462.47C335.202 462.694 335.295 462.876 335.482 463.016C335.669 463.147 335.902 463.212 336.182 463.212ZM344.432 464.5C343.863 464.5 343.41 464.453 343.074 464.36C342.738 464.257 342.496 464.066 342.346 463.786C342.206 463.497 342.136 463.081 342.136 462.54V459.18H340.988V457.556H342.136V455.82H344.264V457.556H345.776V459.18H344.264V461.98C344.264 462.307 344.325 462.521 344.446 462.624C344.577 462.717 344.815 462.764 345.16 462.764H345.776V464.5H344.432ZM349.241 456.408C348.896 456.408 348.597 456.287 348.345 456.044C348.102 455.792 347.981 455.493 347.981 455.148C347.981 454.793 348.102 454.495 348.345 454.252C348.597 454.009 348.896 453.888 349.241 453.888C349.596 453.888 349.894 454.009 350.137 454.252C350.38 454.495 350.501 454.793 350.501 455.148C350.501 455.493 350.38 455.792 350.137 456.044C349.894 456.287 349.596 456.408 349.241 456.408ZM348.163 464.5V459.18H346.847V457.556H350.305V464.5H348.163ZM355.345 464.668C354.701 464.668 354.099 464.537 353.539 464.276C352.979 464.015 352.526 463.613 352.181 463.072C351.836 462.521 351.663 461.831 351.663 461C351.663 460.16 351.836 459.474 352.181 458.942C352.526 458.401 352.979 458.004 353.539 457.752C354.099 457.491 354.701 457.36 355.345 457.36C355.98 457.36 356.577 457.491 357.137 457.752C357.697 458.004 358.15 458.401 358.495 458.942C358.84 459.474 359.013 460.16 359.013 461C359.013 461.831 358.84 462.521 358.495 463.072C358.15 463.613 357.697 464.015 357.137 464.276C356.577 464.537 355.98 464.668 355.345 464.668ZM355.345 463.016C355.774 463.016 356.129 462.862 356.409 462.554C356.698 462.246 356.843 461.728 356.843 461C356.843 460.263 356.694 459.749 356.395 459.46C356.106 459.161 355.756 459.012 355.345 459.012C354.925 459.012 354.566 459.161 354.267 459.46C353.978 459.749 353.833 460.263 353.833 461C353.833 461.728 353.978 462.246 354.267 462.554C354.556 462.862 354.916 463.016 355.345 463.016ZM360.452 464.5V457.556H362.314L362.58 458.48C362.739 458.219 363 457.967 363.364 457.724C363.738 457.481 364.19 457.36 364.722 457.36C365.618 457.36 366.23 457.612 366.556 458.116C366.892 458.611 367.06 459.329 367.06 460.272V464.5H364.932V460.804C364.932 460.477 364.914 460.179 364.876 459.908C364.839 459.637 364.746 459.423 364.596 459.264C364.456 459.096 364.214 459.012 363.868 459.012C363.42 459.012 363.094 459.175 362.888 459.502C362.683 459.819 362.58 460.295 362.58 460.93V464.5H360.452Z" fill="#121212"/>
<rect width="142" height="48" transform="translate(262 500)" fill="#BC7EFF"/>
<path d="M307.72 528.5V521.094H304.71V519.148H312.928V521.094H309.918V528.5H307.72ZM313.448 528.5V521.556H315.128L315.506 522.83C315.72 522.27 316.014 521.878 316.388 521.654C316.761 521.43 317.214 521.332 317.746 521.36V523.488C317.634 523.469 317.536 523.46 317.452 523.46C317.368 523.451 317.274 523.446 317.172 523.446C316.658 523.446 316.262 523.567 315.982 523.81C315.711 524.053 315.576 524.449 315.576 525V528.5H313.448ZM320.909 528.668C320.47 528.668 320.069 528.584 319.705 528.416C319.341 528.248 319.052 528.015 318.837 527.716C318.622 527.408 318.515 527.044 318.515 526.624C318.515 526.055 318.711 525.602 319.103 525.266C319.504 524.93 320.05 524.678 320.741 524.51C321.432 524.342 322.225 524.225 323.121 524.16C323.121 523.665 323.042 523.315 322.883 523.11C322.724 522.905 322.416 522.802 321.959 522.802C321.67 522.802 321.413 522.872 321.189 523.012C320.974 523.143 320.83 523.348 320.755 523.628L318.963 522.984C319.196 522.517 319.584 522.13 320.125 521.822C320.676 521.514 321.348 521.36 322.141 521.36C323.13 521.36 323.891 521.579 324.423 522.018C324.955 522.457 325.221 523.203 325.221 524.258V525.784C325.221 526.083 325.23 526.405 325.249 526.75C325.268 527.095 325.296 527.422 325.333 527.73C325.37 528.038 325.412 528.295 325.459 528.5H323.485L323.233 527.66C322.972 528.024 322.64 528.285 322.239 528.444C321.847 528.593 321.404 528.668 320.909 528.668ZM321.693 527.212C322.113 527.212 322.463 527.1 322.743 526.876C323.023 526.652 323.163 526.223 323.163 525.588V525.42C322.426 525.485 321.833 525.588 321.385 525.728C320.937 525.859 320.713 526.106 320.713 526.47C320.713 526.694 320.806 526.876 320.993 527.016C321.18 527.147 321.413 527.212 321.693 527.212ZM329.047 520.408C328.702 520.408 328.403 520.287 328.151 520.044C327.909 519.792 327.787 519.493 327.787 519.148C327.787 518.793 327.909 518.495 328.151 518.252C328.403 518.009 328.702 517.888 329.047 517.888C329.402 517.888 329.701 518.009 329.943 518.252C330.186 518.495 330.307 518.793 330.307 519.148C330.307 519.493 330.186 519.792 329.943 520.044C329.701 520.287 329.402 520.408 329.047 520.408ZM327.969 528.5V523.18H326.653V521.556H330.111V528.5H327.969ZM331.833 528.5V521.556H333.695L333.961 522.48C334.12 522.219 334.381 521.967 334.745 521.724C335.119 521.481 335.571 521.36 336.103 521.36C336.999 521.36 337.611 521.612 337.937 522.116C338.273 522.611 338.441 523.329 338.441 524.272V528.5H336.313V524.804C336.313 524.477 336.295 524.179 336.257 523.908C336.22 523.637 336.127 523.423 335.977 523.264C335.837 523.096 335.595 523.012 335.249 523.012C334.801 523.012 334.475 523.175 334.269 523.502C334.064 523.819 333.961 524.295 333.961 524.93V528.5H331.833ZM342.07 520.408C341.725 520.408 341.426 520.287 341.174 520.044C340.931 519.792 340.81 519.493 340.81 519.148C340.81 518.793 340.931 518.495 341.174 518.252C341.426 518.009 341.725 517.888 342.07 517.888C342.425 517.888 342.723 518.009 342.966 518.252C343.209 518.495 343.33 518.793 343.33 519.148C343.33 519.493 343.209 519.792 342.966 520.044C342.723 520.287 342.425 520.408 342.07 520.408ZM340.992 528.5V523.18H339.676V521.556H343.134V528.5H340.992ZM344.856 528.5V521.556H346.718L346.984 522.48C347.143 522.219 347.404 521.967 347.768 521.724C348.141 521.481 348.594 521.36 349.126 521.36C350.022 521.36 350.633 521.612 350.96 522.116C351.296 522.611 351.464 523.329 351.464 524.272V528.5H349.336V524.804C349.336 524.477 349.317 524.179 349.28 523.908C349.243 523.637 349.149 523.423 349 523.264C348.86 523.096 348.617 523.012 348.272 523.012C347.824 523.012 347.497 523.175 347.292 523.502C347.087 523.819 346.984 524.295 346.984 524.93V528.5H344.856ZM356.67 531.342C356.287 531.342 355.9 531.291 355.508 531.188C355.116 531.095 354.752 530.927 354.416 530.684C354.08 530.441 353.804 530.11 353.59 529.69L355.326 529.06C355.456 529.312 355.643 529.485 355.886 529.578C356.128 529.671 356.371 529.718 356.614 529.718C357.062 529.718 357.421 529.611 357.692 529.396C357.962 529.191 358.098 528.859 358.098 528.402V527.156C357.799 527.529 357.454 527.805 357.062 527.982C356.679 528.159 356.292 528.248 355.9 528.248C355.396 528.248 354.915 528.113 354.458 527.842C354 527.571 353.627 527.184 353.338 526.68C353.048 526.176 352.904 525.574 352.904 524.874C352.904 524.062 353.048 523.399 353.338 522.886C353.627 522.363 353.996 521.976 354.444 521.724C354.892 521.472 355.354 521.346 355.83 521.346C356.268 521.346 356.688 521.444 357.09 521.64C357.5 521.836 357.836 522.125 358.098 522.508L358.378 521.556H360.212V527.982C360.212 529.139 359.899 529.989 359.274 530.53C358.648 531.071 357.78 531.342 356.67 531.342ZM356.656 526.596C356.936 526.596 357.188 526.545 357.412 526.442C357.645 526.33 357.832 526.143 357.972 525.882C358.112 525.621 358.182 525.266 358.182 524.818C358.182 524.137 358.028 523.665 357.72 523.404C357.421 523.143 357.066 523.012 356.656 523.012C356.236 523.012 355.872 523.152 355.564 523.432C355.265 523.712 355.116 524.155 355.116 524.762C355.116 525.378 355.265 525.84 355.564 526.148C355.872 526.447 356.236 526.596 356.656 526.596Z" fill="#121212"/>
<rect x="32.5" y="604.5" width="387" height="125" stroke="#DEF2C8"/>
<path d="M169.137 642H164.557V628.4H169.137C170.31 628.4 171.277 628.527 172.037 628.78C172.797 629.02 173.383 629.427 173.797 630C174.223 630.56 174.517 631.227 174.677 632C174.837 632.76 174.917 633.753 174.917 634.98C174.917 636.207 174.843 637.227 174.697 638.04C174.55 638.84 174.27 639.56 173.857 640.2C173.457 640.827 172.87 641.287 172.097 641.58C171.323 641.86 170.337 642 169.137 642ZM172.037 636.6C172.063 636.173 172.077 635.587 172.077 634.84C172.077 634.08 172.05 633.473 171.997 633.02C171.943 632.567 171.817 632.153 171.617 631.78C171.417 631.407 171.117 631.153 170.717 631.02C170.33 630.873 169.803 630.8 169.137 630.8H167.317V639.6H169.137C170.137 639.6 170.863 639.347 171.317 638.84C171.703 638.427 171.943 637.68 172.037 636.6ZM177.01 633.14C177.717 632.22 178.897 631.76 180.55 631.76C182.204 631.76 183.384 632.22 184.09 633.14C184.797 634.047 185.15 635.327 185.15 636.98C185.15 640.487 183.617 642.24 180.55 642.24C177.484 642.24 175.95 640.487 175.95 636.98C175.95 635.327 176.304 634.047 177.01 633.14ZM179.07 639.24C179.35 639.72 179.844 639.96 180.55 639.96C181.257 639.96 181.744 639.72 182.01 639.24C182.29 638.76 182.43 638.007 182.43 636.98C182.43 635.953 182.29 635.207 182.01 634.74C181.744 634.273 181.257 634.04 180.55 634.04C179.844 634.04 179.35 634.273 179.07 634.74C178.804 635.207 178.67 635.953 178.67 636.98C178.67 638.007 178.804 638.76 179.07 639.24ZM190.255 631.76C190.948 631.76 191.835 631.867 192.915 632.08L193.455 632.2L193.375 634.32C192.322 634.213 191.542 634.16 191.035 634.16C190.115 634.16 189.502 634.36 189.195 634.76C188.902 635.147 188.755 635.887 188.755 636.98C188.755 638.073 188.902 638.827 189.195 639.24C189.502 639.64 190.122 639.84 191.055 639.84L193.375 639.68L193.455 641.82C192.028 642.1 190.942 642.24 190.195 642.24C188.715 642.24 187.648 641.827 186.995 641C186.355 640.16 186.035 638.82 186.035 636.98C186.035 635.14 186.368 633.813 187.035 633C187.702 632.173 188.775 631.76 190.255 631.76ZM200.741 632H203.421V642H200.761V641.44C199.801 641.973 198.967 642.24 198.261 642.24C196.874 642.24 195.941 641.86 195.461 641.1C194.981 640.327 194.741 639.04 194.741 637.24V632H197.421V637.28C197.421 638.267 197.501 638.94 197.661 639.3C197.821 639.66 198.207 639.84 198.821 639.84C199.407 639.84 199.961 639.747 200.481 639.56L200.741 639.48V632ZM207.975 642H205.295V632H207.955V632.56C208.875 632.027 209.662 631.76 210.315 631.76C211.395 631.76 212.229 632.073 212.815 632.7C214.042 632.073 215.162 631.76 216.175 631.76C217.495 631.76 218.409 632.147 218.915 632.92C219.435 633.68 219.695 634.9 219.695 636.58V642H217.015V636.66C217.015 635.807 216.922 635.18 216.735 634.78C216.549 634.367 216.175 634.16 215.615 634.16C215.189 634.16 214.669 634.253 214.055 634.44L213.755 634.54C213.809 635.54 213.835 636.3 213.835 636.82V642H211.155V636.86C211.155 635.873 211.069 635.18 210.895 634.78C210.722 634.367 210.342 634.16 209.755 634.16C209.235 634.16 208.722 634.253 208.215 634.44L207.975 634.52V642ZM223.673 638.14C223.686 638.753 223.846 639.2 224.153 639.48C224.473 639.747 224.926 639.88 225.513 639.88C226.753 639.88 227.859 639.84 228.833 639.76L229.393 639.7L229.433 641.68C227.899 642.053 226.513 642.24 225.273 642.24C223.766 642.24 222.673 641.84 221.993 641.04C221.313 640.24 220.973 638.94 220.973 637.14C220.973 633.553 222.446 631.76 225.393 631.76C228.299 631.76 229.753 633.267 229.753 636.28L229.553 638.14H223.673ZM227.113 636.1C227.113 635.3 226.986 634.747 226.733 634.44C226.479 634.12 226.033 633.96 225.393 633.96C224.766 633.96 224.319 634.127 224.053 634.46C223.799 634.78 223.666 635.327 223.653 636.1H227.113ZM233.748 642H231.068V632H233.728V632.56C234.635 632.027 235.468 631.76 236.228 631.76C237.561 631.76 238.481 632.153 238.988 632.94C239.495 633.727 239.748 634.94 239.748 636.58V642H237.068V636.66C237.068 635.807 236.968 635.18 236.768 634.78C236.568 634.367 236.168 634.16 235.568 634.16C235.021 634.16 234.495 634.253 233.988 634.44L233.748 634.52V642ZM247.063 634.28H244.603V638.38C244.603 638.78 244.609 639.067 244.623 639.24C244.649 639.4 244.723 639.54 244.843 639.66C244.976 639.78 245.176 639.84 245.443 639.84L246.963 639.8L247.083 641.94C246.189 642.14 245.509 642.24 245.043 642.24C243.843 642.24 243.023 641.973 242.583 641.44C242.143 640.893 241.923 639.893 241.923 638.44V634.28H240.743V632H241.923V629.22H244.603V632H247.063V634.28ZM255.868 635.12V639.28C255.895 639.6 255.948 639.827 256.028 639.96C256.108 640.08 256.275 640.167 256.528 640.22L256.448 642.24C255.768 642.24 255.221 642.193 254.808 642.1C254.408 642.007 254.001 641.82 253.588 641.54C252.628 642.007 251.648 642.24 250.648 642.24C248.581 642.24 247.548 641.147 247.548 638.96C247.548 637.893 247.835 637.14 248.408 636.7C248.981 636.247 249.861 635.98 251.048 635.9L253.188 635.74V635.12C253.188 634.707 253.095 634.427 252.908 634.28C252.721 634.12 252.421 634.04 252.008 634.04L248.248 634.2L248.168 632.34C249.595 631.953 250.948 631.76 252.228 631.76C253.521 631.76 254.448 632.027 255.008 632.56C255.581 633.093 255.868 633.947 255.868 635.12ZM251.368 637.76C250.621 637.827 250.248 638.227 250.248 638.96C250.248 639.693 250.575 640.06 251.228 640.06C251.735 640.06 252.288 639.98 252.888 639.82L253.188 639.74V637.6L251.368 637.76ZM263.363 634.28H260.903V638.38C260.903 638.78 260.909 639.067 260.923 639.24C260.949 639.4 261.023 639.54 261.143 639.66C261.276 639.78 261.476 639.84 261.743 639.84L263.263 639.8L263.383 641.94C262.489 642.14 261.809 642.24 261.343 642.24C260.143 642.24 259.323 641.973 258.883 641.44C258.443 640.893 258.223 639.893 258.223 638.44V634.28H257.043V632H258.223V629.22H260.903V632H263.363V634.28ZM264.508 642V632H267.188V642H264.508ZM264.508 630.72V628H267.188V630.72H264.508ZM269.604 633.14C270.311 632.22 271.491 631.76 273.144 631.76C274.798 631.76 275.978 632.22 276.684 633.14C277.391 634.047 277.744 635.327 277.744 636.98C277.744 640.487 276.211 642.24 273.144 642.24C270.078 642.24 268.544 640.487 268.544 636.98C268.544 635.327 268.898 634.047 269.604 633.14ZM271.664 639.24C271.944 639.72 272.438 639.96 273.144 639.96C273.851 639.96 274.338 639.72 274.604 639.24C274.884 638.76 275.024 638.007 275.024 636.98C275.024 635.953 274.884 635.207 274.604 634.74C274.338 634.273 273.851 634.04 273.144 634.04C272.438 634.04 271.944 634.273 271.664 634.74C271.398 635.207 271.264 635.953 271.264 636.98C271.264 638.007 271.398 638.76 271.664 639.24ZM281.789 642H279.109V632H281.769V632.56C282.675 632.027 283.509 631.76 284.269 631.76C285.602 631.76 286.522 632.153 287.029 632.94C287.535 633.727 287.789 634.94 287.789 636.58V642H285.109V636.66C285.109 635.807 285.009 635.18 284.809 634.78C284.609 634.367 284.209 634.16 283.609 634.16C283.062 634.16 282.535 634.253 282.029 634.44L281.789 634.52V642Z" fill="#ECECEC"/>
<rect width="170" height="48" transform="translate(48 666)" fill="#DEF2C8"/>
<path d="M93.616 694.5V685.148H96.934L98.88 691.854L100.854 685.148H104.172V694.5H102.016V687.15L99.79 694.5H97.97L95.758 687.15V694.5H93.616ZM109.203 694.668C108.559 694.668 107.957 694.537 107.397 694.276C106.837 694.015 106.384 693.613 106.039 693.072C105.694 692.521 105.521 691.831 105.521 691C105.521 690.16 105.694 689.474 106.039 688.942C106.384 688.401 106.837 688.004 107.397 687.752C107.957 687.491 108.559 687.36 109.203 687.36C109.838 687.36 110.435 687.491 110.995 687.752C111.555 688.004 112.008 688.401 112.353 688.942C112.698 689.474 112.871 690.16 112.871 691C112.871 691.831 112.698 692.521 112.353 693.072C112.008 693.613 111.555 694.015 110.995 694.276C110.435 694.537 109.838 694.668 109.203 694.668ZM109.203 693.016C109.632 693.016 109.987 692.862 110.267 692.554C110.556 692.246 110.701 691.728 110.701 691C110.701 690.263 110.552 689.749 110.253 689.46C109.964 689.161 109.614 689.012 109.203 689.012C108.783 689.012 108.424 689.161 108.125 689.46C107.836 689.749 107.691 690.263 107.691 691C107.691 691.728 107.836 692.246 108.125 692.554C108.414 692.862 108.774 693.016 109.203 693.016ZM117.013 694.668C116.415 694.668 115.883 694.519 115.417 694.22C114.959 693.921 114.6 693.497 114.339 692.946C114.077 692.386 113.947 691.728 113.947 690.972C113.947 690.216 114.077 689.572 114.339 689.04C114.6 688.499 114.959 688.083 115.417 687.794C115.883 687.505 116.415 687.36 117.013 687.36C117.395 687.36 117.787 687.458 118.189 687.654C118.59 687.841 118.903 688.125 119.127 688.508V685.148H121.255V691.784C121.255 692.129 121.269 692.54 121.297 693.016C121.334 693.492 121.399 693.987 121.493 694.5H119.463L119.183 693.562C118.893 693.963 118.553 694.248 118.161 694.416C117.778 694.584 117.395 694.668 117.013 694.668ZM117.699 693.016C118.109 693.016 118.464 692.862 118.763 692.554C119.071 692.246 119.225 691.733 119.225 691.014C119.225 690.305 119.071 689.796 118.763 689.488C118.464 689.171 118.109 689.012 117.699 689.012C117.279 689.012 116.915 689.18 116.607 689.516C116.308 689.852 116.159 690.337 116.159 690.972C116.159 691.616 116.308 692.12 116.607 692.484C116.915 692.839 117.279 693.016 117.699 693.016ZM126.494 694.668C125.748 694.668 125.085 694.523 124.506 694.234C123.937 693.935 123.489 693.511 123.162 692.96C122.845 692.409 122.686 691.751 122.686 690.986C122.686 690.249 122.854 689.609 123.19 689.068C123.536 688.527 123.988 688.107 124.548 687.808C125.118 687.509 125.738 687.36 126.41 687.36C127.176 687.36 127.829 687.542 128.37 687.906C128.921 688.261 129.336 688.755 129.616 689.39C129.896 690.015 130.013 690.739 129.966 691.56H124.828C124.866 692.045 125.043 692.409 125.36 692.652C125.687 692.895 126.046 693.016 126.438 693.016C126.765 693.016 127.045 692.969 127.278 692.876C127.521 692.773 127.708 692.647 127.838 692.498L129.532 693.114C129.168 693.646 128.711 694.038 128.16 694.29C127.619 694.542 127.064 694.668 126.494 694.668ZM124.828 690.3H127.992C127.983 689.852 127.829 689.516 127.53 689.292C127.232 689.059 126.877 688.942 126.466 688.942C126.065 688.942 125.706 689.049 125.388 689.264C125.08 689.479 124.894 689.824 124.828 690.3ZM133.676 694.5C133.107 694.5 132.654 694.453 132.318 694.36C131.982 694.257 131.739 694.066 131.59 693.786C131.45 693.497 131.38 693.081 131.38 692.54V685.148H133.508V691.98C133.508 692.307 133.573 692.521 133.704 692.624C133.835 692.717 134.077 692.764 134.432 692.764H135.034V694.5H133.676ZM145.533 694.668C144.562 694.668 143.727 694.472 143.027 694.08C142.327 693.688 141.79 693.128 141.417 692.4C141.043 691.672 140.857 690.813 140.857 689.824C140.857 688.835 141.048 687.981 141.431 687.262C141.823 686.534 142.373 685.974 143.083 685.582C143.792 685.181 144.627 684.98 145.589 684.98C146.475 684.98 147.245 685.176 147.899 685.568C148.561 685.96 149.07 686.487 149.425 687.15L147.465 687.864C147.259 687.481 146.979 687.211 146.625 687.052C146.27 686.884 145.901 686.8 145.519 686.8C145.089 686.8 144.697 686.921 144.343 687.164C143.988 687.397 143.708 687.743 143.503 688.2C143.297 688.648 143.195 689.189 143.195 689.824C143.195 690.804 143.419 691.555 143.867 692.078C144.324 692.591 144.884 692.848 145.547 692.848C145.901 692.848 146.265 692.773 146.639 692.624C147.021 692.475 147.32 692.199 147.535 691.798L149.481 692.512C149.107 693.175 148.575 693.702 147.885 694.094C147.203 694.477 146.419 694.668 145.533 694.668ZM152.917 694.668C152.478 694.668 152.077 694.584 151.713 694.416C151.349 694.248 151.059 694.015 150.845 693.716C150.63 693.408 150.523 693.044 150.523 692.624C150.523 692.055 150.719 691.602 151.111 691.266C151.512 690.93 152.058 690.678 152.749 690.51C153.439 690.342 154.233 690.225 155.129 690.16C155.129 689.665 155.049 689.315 154.891 689.11C154.732 688.905 154.424 688.802 153.967 688.802C153.677 688.802 153.421 688.872 153.197 689.012C152.982 689.143 152.837 689.348 152.763 689.628L150.971 688.984C151.204 688.517 151.591 688.13 152.133 687.822C152.683 687.514 153.355 687.36 154.149 687.36C155.138 687.36 155.899 687.579 156.431 688.018C156.963 688.457 157.229 689.203 157.229 690.258V691.784C157.229 692.083 157.238 692.405 157.257 692.75C157.275 693.095 157.303 693.422 157.341 693.73C157.378 694.038 157.42 694.295 157.467 694.5H155.493L155.241 693.66C154.979 694.024 154.648 694.285 154.247 694.444C153.855 694.593 153.411 694.668 152.917 694.668ZM153.701 693.212C154.121 693.212 154.471 693.1 154.751 692.876C155.031 692.652 155.171 692.223 155.171 691.588V691.42C154.433 691.485 153.841 691.588 153.393 691.728C152.945 691.859 152.721 692.106 152.721 692.47C152.721 692.694 152.814 692.876 153.001 693.016C153.187 693.147 153.421 693.212 153.701 693.212ZM159.025 694.5V687.556H160.705L161.083 688.83C161.298 688.27 161.592 687.878 161.965 687.654C162.338 687.43 162.791 687.332 163.323 687.36V689.488C163.211 689.469 163.113 689.46 163.029 689.46C162.945 689.451 162.852 689.446 162.749 689.446C162.236 689.446 161.839 689.567 161.559 689.81C161.288 690.053 161.153 690.449 161.153 691V694.5H159.025ZM167.336 694.668C166.739 694.668 166.207 694.519 165.74 694.22C165.283 693.921 164.923 693.497 164.662 692.946C164.401 692.386 164.27 691.728 164.27 690.972C164.27 690.216 164.401 689.572 164.662 689.04C164.923 688.499 165.283 688.083 165.74 687.794C166.207 687.505 166.739 687.36 167.336 687.36C167.719 687.36 168.111 687.458 168.512 687.654C168.913 687.841 169.226 688.125 169.45 688.508V685.148H171.578V691.784C171.578 692.129 171.592 692.54 171.62 693.016C171.657 693.492 171.723 693.987 171.816 694.5H169.786L169.506 693.562C169.217 693.963 168.876 694.248 168.484 694.416C168.101 694.584 167.719 694.668 167.336 694.668ZM168.022 693.016C168.433 693.016 168.787 692.862 169.086 692.554C169.394 692.246 169.548 691.733 169.548 691.014C169.548 690.305 169.394 689.796 169.086 689.488C168.787 689.171 168.433 689.012 168.022 689.012C167.602 689.012 167.238 689.18 166.93 689.516C166.631 689.852 166.482 690.337 166.482 690.972C166.482 691.616 166.631 692.12 166.93 692.484C167.238 692.839 167.602 693.016 168.022 693.016Z" fill="#121212"/>
<rect width="170" height="48" transform="translate(234 666)" fill="#DEF2C8"/>
<path d="M286.616 694.5V685.148H289.934L291.88 691.854L293.854 685.148H297.172V694.5H295.016V687.15L292.79 694.5H290.97L288.758 687.15V694.5H286.616ZM302.329 694.668C301.582 694.668 300.92 694.523 300.341 694.234C299.772 693.935 299.324 693.511 298.997 692.96C298.68 692.409 298.521 691.751 298.521 690.986C298.521 690.249 298.689 689.609 299.025 689.068C299.37 688.527 299.823 688.107 300.383 687.808C300.952 687.509 301.573 687.36 302.245 687.36C303.01 687.36 303.664 687.542 304.205 687.906C304.756 688.261 305.171 688.755 305.451 689.39C305.731 690.015 305.848 690.739 305.801 691.56H300.663C300.7 692.045 300.878 692.409 301.195 692.652C301.522 692.895 301.881 693.016 302.273 693.016C302.6 693.016 302.88 692.969 303.113 692.876C303.356 692.773 303.542 692.647 303.673 692.498L305.367 693.114C305.003 693.646 304.546 694.038 303.995 694.29C303.454 694.542 302.898 694.668 302.329 694.668ZM300.663 690.3H303.827C303.818 689.852 303.664 689.516 303.365 689.292C303.066 689.059 302.712 688.942 302.301 688.942C301.9 688.942 301.54 689.049 301.223 689.264C300.915 689.479 300.728 689.824 300.663 690.3ZM310.141 694.5C309.572 694.5 309.119 694.453 308.783 694.36C308.447 694.257 308.204 694.066 308.055 693.786C307.915 693.497 307.845 693.081 307.845 692.54V689.18H306.697V687.556H307.845V685.82H309.973V687.556H311.485V689.18H309.973V691.98C309.973 692.307 310.034 692.521 310.155 692.624C310.286 692.717 310.524 692.764 310.869 692.764H311.485V694.5H310.141ZM314.95 694.668C314.511 694.668 314.11 694.584 313.746 694.416C313.382 694.248 313.092 694.015 312.878 693.716C312.663 693.408 312.556 693.044 312.556 692.624C312.556 692.055 312.752 691.602 313.144 691.266C313.545 690.93 314.091 690.678 314.782 690.51C315.472 690.342 316.266 690.225 317.162 690.16C317.162 689.665 317.082 689.315 316.924 689.11C316.765 688.905 316.457 688.802 316 688.802C315.71 688.802 315.454 688.872 315.23 689.012C315.015 689.143 314.87 689.348 314.796 689.628L313.004 688.984C313.237 688.517 313.624 688.13 314.166 687.822C314.716 687.514 315.388 687.36 316.182 687.36C317.171 687.36 317.932 687.579 318.464 688.018C318.996 688.457 319.262 689.203 319.262 690.258V691.784C319.262 692.083 319.271 692.405 319.29 692.75C319.308 693.095 319.336 693.422 319.374 693.73C319.411 694.038 319.453 694.295 319.5 694.5H317.526L317.274 693.66C317.012 694.024 316.681 694.285 316.28 694.444C315.888 694.593 315.444 694.668 314.95 694.668ZM315.734 693.212C316.154 693.212 316.504 693.1 316.784 692.876C317.064 692.652 317.204 692.223 317.204 691.588V691.42C316.466 691.485 315.874 691.588 315.426 691.728C314.978 691.859 314.754 692.106 314.754 692.47C314.754 692.694 314.847 692.876 315.034 693.016C315.22 693.147 315.454 693.212 315.734 693.212ZM323.76 694.668C323.162 694.668 322.63 694.519 322.164 694.22C321.706 693.921 321.347 693.497 321.086 692.946C320.824 692.386 320.694 691.728 320.694 690.972C320.694 690.216 320.824 689.572 321.086 689.04C321.347 688.499 321.706 688.083 322.164 687.794C322.63 687.505 323.162 687.36 323.76 687.36C324.142 687.36 324.534 687.458 324.936 687.654C325.337 687.841 325.65 688.125 325.874 688.508V685.148H328.002V691.784C328.002 692.129 328.016 692.54 328.044 693.016C328.081 693.492 328.146 693.987 328.24 694.5H326.21L325.93 693.562C325.64 693.963 325.3 694.248 324.908 694.416C324.525 694.584 324.142 694.668 323.76 694.668ZM324.446 693.016C324.856 693.016 325.211 692.862 325.51 692.554C325.818 692.246 325.972 691.733 325.972 691.014C325.972 690.305 325.818 689.796 325.51 689.488C325.211 689.171 324.856 689.012 324.446 689.012C324.026 689.012 323.662 689.18 323.354 689.516C323.055 689.852 322.906 690.337 322.906 690.972C322.906 691.616 323.055 692.12 323.354 692.484C323.662 692.839 324.026 693.016 324.446 693.016ZM331.828 694.668C331.389 694.668 330.988 694.584 330.624 694.416C330.26 694.248 329.97 694.015 329.756 693.716C329.541 693.408 329.434 693.044 329.434 692.624C329.434 692.055 329.63 691.602 330.022 691.266C330.423 690.93 330.969 690.678 331.66 690.51C332.35 690.342 333.144 690.225 334.04 690.16C334.04 689.665 333.96 689.315 333.802 689.11C333.643 688.905 333.335 688.802 332.878 688.802C332.588 688.802 332.332 688.872 332.108 689.012C331.893 689.143 331.748 689.348 331.674 689.628L329.882 688.984C330.115 688.517 330.502 688.13 331.044 687.822C331.594 687.514 332.266 687.36 333.06 687.36C334.049 687.36 334.81 687.579 335.342 688.018C335.874 688.457 336.14 689.203 336.14 690.258V691.784C336.14 692.083 336.149 692.405 336.168 692.75C336.186 693.095 336.214 693.422 336.252 693.73C336.289 694.038 336.331 694.295 336.378 694.5H334.404L334.152 693.66C333.89 694.024 333.559 694.285 333.158 694.444C332.766 694.593 332.322 694.668 331.828 694.668ZM332.612 693.212C333.032 693.212 333.382 693.1 333.662 692.876C333.942 692.652 334.082 692.223 334.082 691.588V691.42C333.344 691.485 332.752 691.588 332.304 691.728C331.856 691.859 331.632 692.106 331.632 692.47C331.632 692.694 331.725 692.876 331.912 693.016C332.098 693.147 332.332 693.212 332.612 693.212ZM340.862 694.5C340.293 694.5 339.84 694.453 339.504 694.36C339.168 694.257 338.925 694.066 338.776 693.786C338.636 693.497 338.566 693.081 338.566 692.54V689.18H337.418V687.556H338.566V685.82H340.694V687.556H342.206V689.18H340.694V691.98C340.694 692.307 340.755 692.521 340.876 692.624C341.007 692.717 341.245 692.764 341.59 692.764H342.206V694.5H340.862ZM345.671 694.668C345.232 694.668 344.831 694.584 344.467 694.416C344.103 694.248 343.813 694.015 343.599 693.716C343.384 693.408 343.277 693.044 343.277 692.624C343.277 692.055 343.473 691.602 343.865 691.266C344.266 690.93 344.812 690.678 345.503 690.51C346.193 690.342 346.987 690.225 347.883 690.16C347.883 689.665 347.803 689.315 347.645 689.11C347.486 688.905 347.178 688.802 346.721 688.802C346.431 688.802 346.175 688.872 345.951 689.012C345.736 689.143 345.591 689.348 345.517 689.628L343.725 688.984C343.958 688.517 344.345 688.13 344.887 687.822C345.437 687.514 346.109 687.36 346.903 687.36C347.892 687.36 348.653 687.579 349.185 688.018C349.717 688.457 349.983 689.203 349.983 690.258V691.784C349.983 692.083 349.992 692.405 350.011 692.75C350.029 693.095 350.057 693.422 350.095 693.73C350.132 694.038 350.174 694.295 350.221 694.5H348.247L347.995 693.66C347.733 694.024 347.402 694.285 347.001 694.444C346.609 694.593 346.165 694.668 345.671 694.668ZM346.455 693.212C346.875 693.212 347.225 693.1 347.505 692.876C347.785 692.652 347.925 692.223 347.925 691.588V691.42C347.187 691.485 346.595 691.588 346.147 691.728C345.699 691.859 345.475 692.106 345.475 692.47C345.475 692.694 345.568 692.876 345.755 693.016C345.941 693.147 346.175 693.212 346.455 693.212Z" fill="#121212"/>
</svg>
