<svg xmlns="http://www.w3.org/2000/svg" width="127" height="24" viewBox="0 0 127 24" fill="none">
  <path d="M113.648 11.5145C114.83 11.952 116.343 12.3542 118.185 12.7226C119.889 13.0677 121.152 13.3787 121.98 13.6549L121.984 13.656L121.987 13.657C122.816 13.9057 123.493 14.3177 124.025 14.8903C124.535 15.4403 124.807 16.2418 124.807 17.3287C124.807 18.8986 124.182 20.1261 122.924 21.0335L122.923 21.0345C121.674 21.9503 120.082 22.4163 118.132 22.4163C116.561 22.4163 115.214 22.1404 114.085 21.5971C112.955 21.0318 112.093 20.2509 111.49 19.2547C110.909 18.2577 110.615 17.0892 110.615 15.7414V15.5165H108.966V15.7414C108.966 17.3531 109.331 18.7965 110.066 20.0653L110.068 20.0693C110.826 21.318 111.907 22.2857 113.303 22.9727C114.7 23.6599 116.311 24 118.132 24C119.604 24 120.971 23.7582 122.23 23.2722C123.495 22.7839 124.513 22.0479 125.274 21.0621C126.065 20.0455 126.455 18.8073 126.455 17.3611C126.455 15.9225 126.101 14.7723 125.363 13.9413C124.667 13.1335 123.802 12.5607 122.772 12.2244C121.786 11.8741 120.404 11.5157 118.632 11.1481C116.886 10.7817 115.535 10.4382 114.575 10.1183C113.631 9.80352 112.875 9.35603 112.3 8.78115C111.744 8.20479 111.457 7.43386 111.457 6.44451C111.457 5.34395 111.757 4.4476 112.344 3.73885C112.964 3.01566 113.761 2.47579 114.742 2.12096C115.731 1.76339 116.795 1.58368 117.938 1.58368C119.223 1.58368 120.387 1.84691 121.433 2.3698L121.436 2.37137C122.48 2.87236 123.3 3.59001 123.903 4.52558C124.504 5.45739 124.807 6.53714 124.807 7.77264V7.9976H126.455V7.77264C126.455 6.26466 126.078 4.91528 125.318 3.73156C124.561 2.55153 123.526 1.63936 122.218 0.995888C120.931 0.331027 119.514 0 117.97 0C116.369 0 114.945 0.2632 113.703 0.795628L113.701 0.796219C112.48 1.32903 111.517 2.08795 110.822 3.07558L110.82 3.07843C110.144 4.06933 109.809 5.21575 109.809 6.5093C109.809 7.76057 110.145 8.80811 110.833 9.63351L110.835 9.63611L110.837 9.63865C111.534 10.4261 112.473 11.049 113.644 11.5127L113.648 11.5145Z" fill="#FFAF52"/>
  <path fill-rule="evenodd" clip-rule="evenodd" d="M87.3164 23.5141H88.9649V16.679H96.6115C98.2365 16.679 99.6445 16.3826 100.827 15.78C102.181 15.0919 103.249 14.1023 104.027 12.8139C104.826 11.5256 105.226 10.1135 105.226 8.58247C105.226 6.98943 104.839 5.57529 104.057 4.34772C103.279 3.12474 102.222 2.17972 100.892 1.51419C99.5842 0.849558 98.1563 0.518286 96.6115 0.518286H87.3164V23.5141ZM102.577 12.0569C101.908 13.1015 101.023 13.8826 99.9169 14.4042L99.9142 14.4055C99.0693 14.8176 97.9724 15.0306 96.6115 15.0306H88.9649V2.16676H96.6115C97.9502 2.16676 99.0365 2.37955 99.8818 2.79189L99.8859 2.79381C101.013 3.31574 101.909 4.09687 102.577 5.14045C103.244 6.18362 103.578 7.32922 103.578 8.58247C103.578 9.85808 103.244 11.0143 102.577 12.0569Z" fill="#FFAF52"/>
  <path fill-rule="evenodd" clip-rule="evenodd" d="M76.1823 22.739L76.1845 22.7378C77.6427 21.8761 78.7933 20.7148 79.6334 19.2561C80.496 17.7958 80.9273 16.2016 80.9273 14.4781V9.55429C80.9273 7.83076 80.496 6.23662 79.6334 4.77632C78.7932 3.31749 77.6422 2.16654 76.1834 1.32637C74.7231 0.463728 73.129 0.032402 71.4054 0.032402C69.6819 0.032402 68.0877 0.463736 66.6274 1.3264C65.1687 2.16647 64.0074 3.31707 63.1458 4.77519L63.1445 4.77738C62.3037 6.23769 61.8835 7.83143 61.8835 9.55429V14.4781C61.8835 16.201 62.3037 17.7947 63.1445 19.255L63.1458 19.2572C64.0073 20.7152 65.1683 21.8762 66.6263 22.7378L66.6285 22.739C68.0888 23.5798 69.6826 24 71.4054 24C73.1283 24 74.722 23.5798 76.1823 22.739ZM78.2083 18.4459L78.2077 18.447C77.5151 19.6434 76.5608 20.5982 75.3413 21.3132C74.1459 22.0051 72.8354 22.3515 71.4054 22.3515C69.9759 22.3515 68.6545 22.0053 67.4371 21.3131C66.2398 20.5985 65.285 19.6437 64.5704 18.4464C63.8782 17.229 63.532 15.9076 63.532 14.4781V9.55429C63.532 8.12425 63.8784 6.81379 64.5704 5.61839C65.2854 4.39889 66.2401 3.44464 67.4366 2.75198L67.4376 2.75136C68.6552 2.03758 69.9764 1.68087 71.4054 1.68087C72.8344 1.68087 74.1442 2.03755 75.3394 2.75049L75.3434 2.75282C76.5608 3.44547 77.5142 4.39896 78.2069 5.61635L78.2092 5.62034C78.9222 6.81556 79.2788 8.12531 79.2788 9.55429V14.4781C79.2788 15.9071 78.9221 17.2283 78.2083 18.4459Z" fill="#FFAF52"/>
  <path d="M59.8135 2.16676V0.518286H41.1585V2.16676H49.678V23.5141H51.294V2.16676H59.8135Z" fill="#FFAF52"/>
  <path d="M36.1919 2.21717V0.568703H23.832V2.21717H29.1877V21.916H23.832V23.5645H36.1919V21.916H30.8038V2.21717H36.1919Z" fill="#FFAF52"/>
  <path fill-rule="evenodd" clip-rule="evenodd" d="M18.9084 0.343748L9.26497 9.98714L18.8024 23.3395H-4.57764e-05V0.343748H18.9084ZM1.64842 21.6911V17.6037L8.10022 11.1519L15.6282 21.6911H1.64842Z" fill="#FFAF52"/>
  <path d="M-4.57764e-05 19.24V0.343748H18.9084L-4.57764e-05 19.24Z" fill="white"/>
</svg>
