<svg width="72" height="56" viewBox="0 0 72 56" fill="none" xmlns="http://www.w3.org/2000/svg">
<g clip-path="url(#clip0_8_899)">
<path d="M70.0305 23.0086C68.2911 21.8378 63.7203 21.3377 60.3973 22.2328C60.2181 18.9229 58.5115 16.1336 55.3893 13.7L54.2334 12.9241L53.4632 14.0875C51.949 16.386 51.311 19.4482 51.5371 22.2318C51.7154 23.9468 52.312 25.8748 53.4632 27.2736C49.1382 29.7823 45.1519 29.2128 27.4972 29.2128H0.239274C0.159528 33.1992 0.800306 40.8678 5.67697 47.1105C6.21548 47.8001 6.80654 48.4671 7.44731 49.1098C11.4121 53.0801 17.4023 55.9913 26.3601 55.9998C40.0256 56.012 51.7341 48.6257 58.8559 30.7655C61.1994 30.804 67.3858 31.1858 70.4133 25.3353C70.4874 25.2368 71.1835 23.7836 71.1835 23.7836L70.0296 23.0077L70.0305 23.0086ZM18.0281 19.3629H10.3632V27.0278H18.0281V19.3629ZM27.9306 19.3629H20.2657V27.0278H27.9306V19.3629ZM37.8331 19.3629H30.1682V27.0278H37.8331V19.3629ZM47.7356 19.3629H40.0707V27.0278H47.7356V19.3629ZM8.12562 19.3629H0.460684V27.0278H8.12562V19.3629ZM18.0281 9.68178H10.3632V17.3467H18.0281V9.68178ZM27.9306 9.68178H20.2657V17.3467H27.9306V9.68178ZM37.8331 9.68178H30.1682V17.3467H37.8331V9.68178ZM37.8331 -0.000244141H30.1682V7.66469H37.8331V-0.000244141Z" fill="white" />
</g>
<defs>
<clipPath id="clip0_8_899">
<rect width="70.9508" height="56" fill="white" transform="translate(0.233154)"/>
</clipPath>
</defs>
</svg>
