<svg width="57" height="56" viewBox="0 0 57 56" fill="none" xmlns="http://www.w3.org/2000/svg">
<g clip-path="url(#clip0_8_897)">
<path fill-rule="evenodd" clip-rule="evenodd" d="M27.9737 0C12.5366 0 0.0571289 12.8333 0.0571289 28.7099C0.0571289 41.4009 8.05313 52.1436 19.1457 55.9457C20.5326 56.2316 21.0406 55.328 21.0406 54.5679C21.0406 53.9023 20.9948 51.6209 20.9948 49.2438C13.2291 50.9553 11.612 45.8214 11.612 45.8214C10.364 42.4941 8.51484 41.6389 8.51484 41.6389C5.97313 39.8802 8.69999 39.8802 8.69999 39.8802C11.5194 40.0703 12.9988 42.8272 12.9988 42.8272C15.4943 47.1998 19.5154 45.9643 21.1331 45.2037C21.364 43.3498 22.104 42.0665 22.8897 41.3537C16.696 40.6881 10.1794 38.2165 10.1794 27.1886C10.1794 24.0514 11.288 21.4847 13.0446 19.4886C12.7674 18.7757 11.7966 15.8282 13.3223 11.8831C13.3223 11.8831 15.6794 11.1224 20.9943 14.8301C23.2698 14.2016 25.6164 13.8819 27.9737 13.8792C30.3308 13.8792 32.7337 14.2123 34.9526 14.8301C40.268 11.1224 42.6251 11.8831 42.6251 11.8831C44.1509 15.8282 43.1794 18.7757 42.9023 19.4886C44.7051 21.4847 45.768 24.0514 45.768 27.1886C45.768 38.2165 39.2514 40.6402 33.0114 41.3537C34.0286 42.2567 34.9063 43.9676 34.9063 46.6772C34.9063 50.5272 34.8606 53.6171 34.8606 54.5673C34.8606 55.328 35.3691 56.2316 36.7554 55.9463C47.848 52.143 55.844 41.4009 55.844 28.7099C55.8897 12.8333 43.3646 0 27.9737 0Z" fill="white" />
</g>
<defs>
<clipPath id="clip0_8_897">
<rect width="56" height="56" fill="white" transform="translate(0.0571289)"/>
</clipPath>
</defs>
</svg>
