<svg width="56" height="64" viewBox="0 0 56 64" fill="none" xmlns="http://www.w3.org/2000/svg">
<path d="M2.86654 33.6765C2.86654 35.6317 2.71013 36.2685 2.30792 36.7378C1.86028 37.1409 1.27914 37.3638 0.676758 37.3634L0.833171 38.4806C1.76707 38.4933 2.67324 38.1634 3.38047 37.5534C3.76099 37.0893 4.04416 36.5534 4.21307 35.9775C4.38199 35.4017 4.43319 34.7977 4.36363 34.2016V26.8055H2.86654V33.6319V33.6765Z" fill="white" />
<path d="M14.0303 32.7951C14.0303 33.633 14.0303 34.3816 14.0973 35.0295H12.7678L12.6784 33.7C12.4003 34.1705 12.0026 34.5588 11.5258 34.8257C11.0489 35.0926 10.5099 35.2285 9.9635 35.2195C8.66752 35.2195 7.12573 34.5156 7.12573 31.6443V26.8737H8.62283V31.3427C8.62283 32.8956 9.10324 33.9347 10.4551 33.9347C10.7332 33.9377 11.0091 33.8851 11.2667 33.78C11.5242 33.675 11.7582 33.5195 11.9549 33.3229C12.1515 33.1262 12.307 32.8922 12.412 32.6347C12.5171 32.3771 12.5697 32.1012 12.5667 31.8231V26.8179H14.0638V32.7504L14.0303 32.7951Z" fill="white" />
<path d="M16.8688 29.531C16.8688 28.492 16.8688 27.6429 16.8018 26.872H18.1424L18.2095 28.2685C18.5082 27.764 18.9382 27.3499 19.4537 27.0705C19.9692 26.7912 20.5508 26.6569 21.1366 26.6821C23.1253 26.6821 24.6224 28.3467 24.6224 30.827C24.6224 33.7542 22.8237 35.2066 20.8797 35.2066C20.3821 35.2288 19.8872 35.1222 19.4429 34.8971C18.9986 34.672 18.62 34.3361 18.3435 33.9218V38.3907H16.8688V29.5645V29.531ZM18.3435 31.7096C18.3476 31.9123 18.37 32.1143 18.4106 32.3129C18.5373 32.809 18.8259 33.2487 19.2306 33.5623C19.6353 33.8759 20.133 34.0457 20.645 34.0446C22.2203 34.0446 23.1477 32.7598 23.1477 30.894C23.1477 29.2629 22.2762 27.8663 20.7009 27.8663C20.0775 27.9174 19.4941 28.1941 19.0601 28.6445C18.6262 29.0949 18.3714 29.6882 18.3435 30.3131V31.7096Z" fill="white" />
<path d="M27.2893 26.8644L29.088 31.6797C29.2779 32.2159 29.479 32.8639 29.6131 33.3444C29.7695 32.8528 29.9371 32.2271 30.1382 31.6462L31.7694 26.8644H33.3447L31.1102 32.674C29.993 35.4671 29.3115 36.9083 28.2836 37.7798C27.7659 38.2527 27.1347 38.5836 26.4513 38.7406L26.0826 37.4893C26.5605 37.3323 27.0041 37.0859 27.3898 36.7631C27.9348 36.3189 28.3674 35.7524 28.6523 35.1096C28.7133 34.9983 28.7548 34.8774 28.7752 34.7521C28.7625 34.6172 28.7285 34.4853 28.6746 34.361L25.6357 26.842H27.2669L27.2893 26.8644Z" fill="white" />
<path d="M37.3197 24.5212V26.8674H39.4648V27.9847H37.3197V32.3866C37.3197 33.3921 37.6102 33.973 38.4369 33.973C38.7306 33.9779 39.0235 33.944 39.3084 33.8725L39.3754 34.9897C38.9483 35.1377 38.4976 35.2059 38.0459 35.1908C37.7467 35.2096 37.447 35.1633 37.1674 35.0554C36.8878 34.9474 36.6348 34.7801 36.4259 34.5652C35.9708 33.9565 35.7632 33.198 35.8449 32.4424V27.9735H34.5713V26.8563H35.8673V24.8676L37.3197 24.5212Z" fill="white" />
<path d="M42.2233 31.2083C42.193 31.5872 42.2453 31.9682 42.3766 32.3249C42.508 32.6816 42.7152 33.0055 42.9839 33.2743C43.2527 33.5431 43.5767 33.7503 43.9334 33.8816C44.2901 34.013 44.671 34.0653 45.0499 34.0349C45.8163 34.0521 46.5777 33.9074 47.2844 33.6104L47.5414 34.7276C46.6742 35.0848 45.7417 35.2561 44.8041 35.2304C44.2576 35.2678 43.7094 35.1866 43.1972 34.9922C42.685 34.7979 42.2209 34.495 41.8367 34.1045C41.4525 33.7139 41.1574 33.2449 40.9715 32.7296C40.7856 32.2143 40.7133 31.6648 40.7597 31.1189C40.7597 28.661 42.2233 26.717 44.6142 26.717C47.2956 26.717 47.9659 29.0632 47.9659 30.5603C47.9802 30.791 47.9802 31.0223 47.9659 31.253H42.1898L42.2233 31.2083ZM46.6029 30.0911C46.646 29.7924 46.6246 29.4879 46.5401 29.1982C46.4556 28.9085 46.31 28.6402 46.1131 28.4115C45.9161 28.1829 45.6725 27.999 45.3985 27.8725C45.1245 27.7459 44.8266 27.6796 44.5248 27.6779C43.911 27.7223 43.3358 27.9944 42.9122 28.4408C42.4885 28.8872 42.2468 29.4758 42.2345 30.0911H46.6029Z" fill="white" />
<path d="M50.2374 29.4055C50.2374 28.4447 50.2374 27.6179 50.1704 26.8582H51.5111V28.4559H51.5781C51.7188 27.9628 52.0096 27.5257 52.41 27.2054C52.8104 26.885 53.3006 26.6973 53.8126 26.6683C53.9535 26.6498 54.0962 26.6498 54.2371 26.6683V28.0648C54.0664 28.0451 53.894 28.0451 53.7232 28.0648C53.2161 28.0845 52.7334 28.2881 52.3654 28.6376C51.9973 28.9871 51.7691 29.4586 51.7234 29.9641C51.6816 30.1927 51.6592 30.4245 51.6563 30.6568V35.0029H50.1816V29.4167L50.2374 29.4055Z" fill="white" />
<path d="M49.5815 4.42431C49.6274 5.17488 49.4488 5.92211 49.0685 6.57082C48.6882 7.21954 48.1234 7.74036 47.4461 8.06696C46.7687 8.39355 46.0095 8.51112 45.2651 8.40471C44.5207 8.29828 43.8248 7.97268 43.2661 7.46938C42.7074 6.96609 42.3112 6.30786 42.1279 5.57858C41.9446 4.84929 41.9826 4.08194 42.2369 3.37431C42.4913 2.66667 42.9505 2.05075 43.5561 1.60503C44.1618 1.15931 44.8864 0.903954 45.6376 0.871499C46.1302 0.844394 46.6233 0.914929 47.0884 1.07905C47.5537 1.24316 47.9818 1.49763 48.3483 1.8278C48.7148 2.15798 49.0125 2.55735 49.2241 3.00296C49.4357 3.44856 49.5572 3.93161 49.5815 4.42431Z" fill="white" />
<path d="M27.4892 48.1787C17.4342 48.1787 8.59683 44.5701 4.02734 39.2408C5.80032 44.0351 8.99945 48.1711 13.1941 51.0922C17.3888 54.0133 22.3778 55.5792 27.4892 55.5792C32.6008 55.5792 37.5897 54.0133 41.7845 51.0922C45.9791 48.1711 49.1782 44.0351 50.9513 39.2408C46.393 44.5701 37.5891 48.1787 27.4892 48.1787Z" fill="white" />
<path d="M27.4892 13.5243C37.5444 13.5243 46.3818 17.1329 50.9513 22.4621C49.1782 17.6679 45.9791 13.5319 41.7845 10.6108C37.5897 7.68971 32.6008 6.12378 27.4892 6.12378C22.3778 6.12378 17.3888 7.68971 13.1941 10.6108C8.99945 13.5319 5.80032 17.6679 4.02734 22.4621C8.59683 17.1218 17.3895 13.5243 27.4892 13.5243Z" fill="white" />
<path d="M13.6481 58.5493C13.7071 59.4947 13.4833 60.4362 13.0053 61.254C12.5272 62.0717 11.8165 62.7286 10.9638 63.141C10.111 63.5534 9.15483 63.7026 8.21699 63.5697C7.27914 63.4366 6.40212 63.0275 5.69765 62.3942C4.99319 61.761 4.49318 60.9324 4.26132 60.014C4.02947 59.0956 4.07628 58.1289 4.39577 57.2372C4.71527 56.3455 5.293 55.5691 6.05534 55.0069C6.81769 54.4447 7.73014 54.1221 8.67645 54.0804C9.29636 54.0472 9.91673 54.1365 10.5021 54.3432C11.0875 54.5498 11.6265 54.8698 12.0882 55.2848C12.5498 55.6998 12.9253 56.2017 13.1929 56.7619C13.4606 57.322 13.6153 57.9294 13.6481 58.5493Z" fill="white" />
<path d="M5.17073 12.3095C4.62893 12.3244 4.09479 12.1789 3.6355 11.8911C3.17621 11.6033 2.81226 11.1861 2.58944 10.692C2.36661 10.1979 2.29485 9.64898 2.38318 9.11422C2.47151 8.57946 2.71599 8.08274 3.08587 7.68656C3.45574 7.29037 3.93451 7.01239 4.46196 6.88758C4.9894 6.76277 5.54197 6.7967 6.05019 6.98511C6.5584 7.17351 6.99956 7.50798 7.31818 7.94644C7.63681 8.38491 7.81869 8.9078 7.84092 9.44935C7.86209 10.1816 7.59357 10.8927 7.09364 11.4282C6.59371 11.9637 5.90273 12.2804 5.17073 12.3095Z" fill="white" />
</svg>
