<svg width="58" height="56" viewBox="0 0 58 56" fill="none" xmlns="http://www.w3.org/2000/svg">
<path d="M34.4359 32.0552C34.359 32.04 34.2805 32.034 34.2022 32.0375C34.0669 32.0446 33.9344 32.079 33.8126 32.1386C33.5764 32.2526 33.3933 32.4534 33.3015 32.6992C33.2097 32.9449 33.2162 33.2165 33.3198 33.4575L33.3127 33.4677L35.6439 39.0996C37.8742 37.6764 39.5666 35.5505 40.4536 33.0579L34.4463 32.0426L34.4359 32.0552ZM25.0887 32.8534C25.0382 32.6314 24.9146 32.4328 24.7378 32.2893C24.5609 32.1459 24.341 32.066 24.1134 32.0623C24.0462 32.0615 23.979 32.0674 23.913 32.0801L23.9029 32.0678L17.9478 33.0787C18.8421 35.5517 20.5274 37.6604 22.7425 39.0778L25.0502 33.5016L25.0321 33.4797C25.1174 33.2823 25.1372 33.0629 25.0887 32.8534ZM30.0761 35.0403C29.9891 34.8781 29.8598 34.7426 29.7018 34.6483C29.5439 34.5539 29.3633 34.5042 29.1793 34.5044C28.9953 34.5046 28.8148 34.5548 28.6571 34.6495C28.4993 34.7443 28.3703 34.8801 28.2837 35.0425H28.2788L25.3503 40.3379C27.4471 41.0518 29.7013 41.1678 31.8603 40.6728C32.2607 40.5817 32.6518 40.4724 33.0336 40.3451L30.0983 35.04L30.0761 35.0403ZM39.3468 22.7392L34.841 26.772L34.8435 26.7849C34.705 26.9059 34.602 27.0621 34.5452 27.237C34.4884 27.4119 34.48 27.5989 34.5209 27.7781C34.5619 27.9574 34.6506 28.1222 34.7776 28.2551C34.9047 28.388 35.0653 28.4841 35.2426 28.533L35.248 28.5573L41.0842 30.2385C41.3365 27.6164 40.7265 24.9837 39.3468 22.7397V22.7392ZM30.9757 23.1911C30.9842 23.3747 31.0423 23.5527 31.1437 23.706C31.2452 23.8594 31.3863 23.9824 31.5521 24.062C31.7178 24.1416 31.902 24.1748 32.0851 24.1582C32.2682 24.1415 32.4434 24.0756 32.5921 23.9674L32.6099 23.975L37.5401 20.4791C35.6634 18.6409 33.2348 17.4701 30.6278 17.1469L30.9703 23.1894L30.9757 23.1911ZM25.7546 23.9898C25.9033 24.0979 26.0786 24.1637 26.2617 24.1801C26.4449 24.1965 26.629 24.163 26.7946 24.0831C26.9602 24.0031 27.101 23.8798 27.2021 23.7262C27.3031 23.5726 27.3607 23.3944 27.3685 23.2107L27.3937 23.1987L27.7362 17.1469C27.3227 17.1964 26.912 17.2672 26.5058 17.3587C24.3446 17.8445 22.3623 18.9247 20.7825 20.4774L25.745 23.9953L25.7546 23.9898ZM23.1091 28.5625C23.2867 28.5141 23.4478 28.4183 23.5753 28.2854C23.7027 28.1526 23.7917 27.9876 23.8328 27.8081C23.8738 27.6286 23.8653 27.4413 23.8082 27.2663C23.7512 27.0912 23.6476 26.935 23.5087 26.8141L23.5136 26.7904L18.983 22.7378C17.6008 24.9875 17.0075 27.6337 17.2969 30.2582L23.1044 28.5825L23.1091 28.5625ZM27.5096 30.3426L29.1809 31.1463L30.8473 30.3445L31.2611 28.5453L30.1078 27.1031H28.2517L27.0952 28.5431L27.5096 30.3426Z" fill="white" />
<path d="M56.8102 33.887L52.0478 13.2007C51.9197 12.6655 51.6744 12.1655 51.3297 11.7366C50.9849 11.3077 50.5493 10.9606 50.0542 10.7205L30.7767 1.51658C30.2771 1.27816 29.7305 1.15442 29.1769 1.15442C28.6233 1.15442 28.0767 1.27816 27.5771 1.51658L8.30346 10.7254C7.80822 10.9654 7.37245 11.3123 7.02759 11.7412C6.68274 12.1701 6.43741 12.6701 6.30932 13.2053L1.55454 33.8911C1.43727 34.414 1.4369 34.9563 1.55345 35.4793C1.58777 35.6387 1.63261 35.7955 1.68766 35.949C1.78071 36.2107 1.90392 36.4608 2.05478 36.6941C2.12012 36.7939 2.189 36.8909 2.2639 36.985L15.6048 53.5718C15.6631 53.6439 15.7273 53.7098 15.791 53.7768C16.0003 53.9997 16.2367 54.1956 16.4946 54.3599C16.8208 54.5652 17.1763 54.7197 17.549 54.8183C17.8545 54.902 18.1697 54.9455 18.4866 54.9476H18.6941L39.8803 54.9426C40.0091 54.9421 40.1378 54.9345 40.2658 54.92C40.4493 54.8992 40.6311 54.8647 40.8095 54.8166C40.9373 54.783 41.0633 54.7426 41.187 54.6958C41.2835 54.6589 41.3797 54.622 41.4727 54.5774C41.6118 54.5108 41.7469 54.4358 41.8769 54.3527C42.2126 54.1417 42.5115 53.8771 42.7618 53.5696L43.1686 53.0639L56.0981 36.9795C56.3459 36.6688 56.5406 36.3192 56.6743 35.9449C56.7302 35.7909 56.7758 35.6335 56.811 35.4736C56.9278 34.9507 56.9274 34.4084 56.8099 33.8857L56.8102 33.887ZM36.8149 41.9325C36.869 42.0916 36.9332 42.2471 37.0071 42.398C36.8891 42.6044 36.857 42.8488 36.9177 43.0787C37.1982 43.721 37.5408 44.3344 37.9406 44.9102C38.1644 45.2045 38.3709 45.5115 38.5592 45.8297C38.6057 45.9158 38.6664 46.0492 38.7104 46.1403C38.7934 46.2791 38.8465 46.4337 38.8662 46.5942C38.8859 46.7547 38.8718 46.9176 38.8248 47.0724C38.7777 47.2271 38.6989 47.3703 38.5932 47.4927C38.4875 47.6152 38.3574 47.7141 38.2112 47.7832C38.0649 47.8524 37.9059 47.8901 37.7442 47.8941C37.5825 47.898 37.4218 47.8681 37.2724 47.8062C37.1229 47.7444 36.9881 47.6519 36.8766 47.5348C36.765 47.4177 36.6792 47.2785 36.6247 47.1263C36.5806 47.0361 36.5194 46.9158 36.482 46.8305C36.3502 46.4848 36.2383 46.1317 36.1471 45.7731C35.9471 45.1022 35.6819 44.4525 35.3555 43.8331C35.2135 43.6416 35.0021 43.5134 34.7666 43.4759C34.7297 43.4122 34.5931 43.1618 34.5198 43.0322C31.0881 44.3318 27.298 44.322 23.8731 43.0049L23.612 43.478C23.4257 43.5069 23.2524 43.5913 23.1148 43.7202C22.7214 44.3658 22.4207 45.0635 22.2215 45.7928C22.1311 46.1514 22.0199 46.5045 21.8885 46.8502C21.8516 46.9349 21.7898 47.0536 21.7458 47.1435V47.1459L21.7439 47.1481C21.6894 47.3006 21.6036 47.44 21.492 47.5572C21.3804 47.6745 21.2454 47.7671 21.0958 47.829C20.9462 47.8909 20.7853 47.9208 20.6235 47.9166C20.4616 47.9125 20.3024 47.8745 20.1562 47.8051C20.0099 47.7357 19.8798 47.6364 19.7743 47.5136C19.6688 47.3908 19.5901 47.2473 19.5435 47.0923C19.4969 46.9372 19.4832 46.7741 19.5035 46.6135C19.5238 46.4529 19.5775 46.2983 19.6612 46.1597C19.7047 46.0681 19.7629 45.9355 19.8088 45.8494C19.997 45.5304 20.2034 45.2226 20.4271 44.9274C20.8342 44.3364 21.1838 43.7079 21.4714 43.0505C21.502 42.8276 21.4662 42.6007 21.3686 42.398L21.5785 41.895C18.421 40.0315 16.0545 37.0768 14.9255 33.5885L14.4228 33.6741C14.2278 33.5357 13.9979 33.4547 13.7591 33.4404C13.0713 33.572 12.3978 33.7702 11.7483 34.0322C11.4111 34.1839 11.0654 34.3162 10.7131 34.4285C10.6297 34.4515 10.5095 34.4745 10.4143 34.4952C10.4067 34.498 10.4001 34.5013 10.3925 34.5032C10.3866 34.504 10.3806 34.5046 10.3747 34.5048C10.2216 34.5552 10.0596 34.573 9.89918 34.5572C9.73876 34.5414 9.58341 34.4922 9.44308 34.4129C9.30274 34.3336 9.18052 34.2258 9.08423 34.0965C8.98794 33.9672 8.9197 33.8193 8.88388 33.6621C8.84807 33.5049 8.84547 33.342 8.87624 33.1838C8.90702 33.0255 8.97049 32.8755 9.0626 32.7432C9.15471 32.6109 9.27343 32.4993 9.41116 32.4155C9.54888 32.3318 9.70258 32.2777 9.86242 32.2567L9.87909 32.2526L9.88921 32.2499C9.9857 32.2272 10.1093 32.1952 10.1973 32.1783C10.5643 32.1273 10.9339 32.0976 11.3044 32.0891C12.003 32.0435 12.6955 31.9298 13.3721 31.7496C13.5726 31.6219 13.742 31.451 13.8679 31.2494L14.3509 31.1083C13.8268 27.4676 14.6652 23.7615 16.7054 20.7008L16.3355 20.3711C16.322 20.1319 16.2417 19.9012 16.1037 19.7052C15.5724 19.2485 14.9977 18.8447 14.3879 18.4997C14.0586 18.3318 13.7392 18.1451 13.4314 17.9404C13.3614 17.8882 13.2685 17.8098 13.1925 17.748L13.1752 17.736C12.9128 17.5475 12.7357 17.2628 12.6825 16.9441C12.6293 16.6254 12.7045 16.2986 12.8915 16.0351C13.002 15.8999 13.1428 15.7926 13.3025 15.7219C13.4622 15.6512 13.6364 15.6192 13.8108 15.6284C14.1044 15.641 14.3863 15.7473 14.615 15.9318C14.6935 15.9933 14.8009 16.0756 14.8706 16.1355C15.1392 16.3895 15.3929 16.6587 15.6305 16.9419C16.102 17.4599 16.623 17.9307 17.1859 18.3475C17.3969 18.4584 17.6429 18.4822 17.8712 18.4139C18.0087 18.5141 18.1473 18.6127 18.2873 18.7097C20.3146 16.5548 22.9398 15.0552 25.8257 14.4032C26.5125 14.2476 27.2095 14.1405 27.9114 14.0825L27.9387 13.5949C28.1179 13.4356 28.2478 13.2285 28.3132 12.9979C28.3384 12.2979 28.2954 11.5972 28.1847 10.9056C28.1114 10.5431 28.0588 10.1768 28.0273 9.80833C28.0243 9.72441 28.0289 9.60851 28.03 9.51283C28.03 9.5019 28.0273 9.49123 28.0273 9.48057C28.0109 9.31929 28.0285 9.15637 28.079 9.00232C28.1295 8.84826 28.2117 8.70651 28.3204 8.5862C28.429 8.4659 28.5617 8.36971 28.7099 8.30385C28.858 8.23799 29.0183 8.20392 29.1804 8.20385C29.3425 8.20377 29.5028 8.23768 29.651 8.3034C29.7992 8.36912 29.932 8.46518 30.0408 8.58539C30.1495 8.70559 30.2319 8.84727 30.2825 9.00127C30.3331 9.15527 30.3509 9.31818 30.3347 9.47948C30.3347 9.58062 30.3407 9.71484 30.3372 9.80751C30.3056 10.1759 30.2527 10.5422 30.1789 10.9045C30.0676 11.5962 30.0238 12.2971 30.0482 12.9973C30.0938 13.2314 30.2291 13.4384 30.4252 13.5741C30.4293 13.6575 30.443 13.9358 30.4531 14.0891C34.1002 14.4208 37.503 16.065 40.0293 18.7162L40.4683 18.4027C40.7041 18.4431 40.9465 18.4168 41.1681 18.3267C41.731 17.9092 42.2519 17.4379 42.7235 16.9194C42.9617 16.6361 43.2161 16.3669 43.4854 16.113C43.5562 16.0524 43.6631 15.9709 43.7412 15.9091C43.857 15.795 43.9955 15.7064 44.1477 15.6493C44.2999 15.5921 44.4624 15.5676 44.6247 15.5773C44.787 15.587 44.9454 15.6308 45.0897 15.7057C45.234 15.7806 45.3609 15.885 45.4622 16.0122C45.5636 16.1393 45.637 16.2863 45.6778 16.4437C45.7187 16.6011 45.7259 16.7653 45.6992 16.9256C45.6724 17.086 45.6122 17.2389 45.5226 17.3745C45.4329 17.5101 45.3157 17.6254 45.1786 17.7127C45.1012 17.7753 44.999 17.8625 44.9246 17.9178C44.6161 18.1225 44.296 18.3093 43.9659 18.477C43.3562 18.8222 42.7816 19.226 42.2501 19.6825C42.0954 19.8637 42.0177 20.0982 42.0336 20.3359C41.9693 20.3949 41.7438 20.5947 41.6244 20.703C43.6703 23.7527 44.5255 27.4474 44.0277 31.0859L44.4935 31.2215C44.6099 31.4311 44.7821 31.6044 44.991 31.722C45.6679 31.9024 46.3608 32.0164 47.0598 32.0624C47.4299 32.0708 47.7991 32.1004 48.1658 32.1509C48.2629 32.1687 48.4031 32.2075 48.502 32.2302C48.6619 32.2512 48.8156 32.3054 48.9533 32.3892C49.091 32.473 49.2096 32.5847 49.3017 32.717C49.3938 32.8494 49.4572 32.9995 49.4879 33.1577C49.5186 33.316 49.5159 33.4789 49.48 33.6361C49.4441 33.7932 49.3758 33.9412 49.2794 34.0704C49.1831 34.1997 49.0608 34.3074 48.9204 34.3866C48.78 34.4659 48.6246 34.5149 48.4642 34.5307C48.3037 34.5464 48.1418 34.5285 47.9887 34.478L47.972 34.4758C47.9643 34.4739 47.9572 34.4698 47.9493 34.4679C47.8542 34.4471 47.7347 34.4264 47.6513 34.4045C47.2991 34.2913 46.9536 34.1579 46.6167 34.0048C45.9666 33.7427 45.2925 33.5444 44.604 33.413C44.3657 33.4055 44.1339 33.4915 43.9583 33.6528C43.7943 33.6216 43.6299 33.5928 43.4652 33.5664C42.3497 37.0764 39.9828 40.0539 36.8149 41.9325Z" fill="white" />
</svg>
