<svg width="69" height="56" viewBox="0 0 69 56" fill="none" xmlns="http://www.w3.org/2000/svg">
<g clip-path="url(#clip0_8_894)">
<path fill-rule="evenodd" clip-rule="evenodd" d="M57.6691 3.9684L59.1147 5.87172C59.4943 6.37406 59.3994 7.09408 58.897 7.47363L57.3621 8.64018C57.6412 9.38253 57.8198 10.1751 57.8924 10.9844L59.6394 11.2245C60.2645 11.3082 60.6999 11.8887 60.6162 12.5138L60.2924 14.886C60.2087 15.5111 59.6282 15.952 59.0031 15.8627L57.0942 15.6004C56.7537 16.3428 56.3184 17.0237 55.8048 17.6321L56.8765 19.0387C57.2561 19.541 57.1556 20.261 56.6532 20.6406L54.7499 22.0862C54.2476 22.4658 53.5276 22.3653 53.148 21.8685L51.9815 20.3336C51.2335 20.6127 50.4465 20.7913 49.6316 20.8638L49.3916 22.6109C49.3079 23.236 48.7274 23.6714 48.1023 23.5877L45.7301 23.2639C45.105 23.1802 44.6696 22.5997 44.7533 21.9746L45.0157 20.0657C44.2789 19.7252 43.5924 19.2898 42.984 18.7819L41.5774 19.848C41.0751 20.2275 40.355 20.1327 39.9755 19.6303L38.5299 17.727C38.1503 17.2247 38.2452 16.5046 38.7475 16.1251L40.2825 14.9585C40.0034 14.2106 39.8248 13.4236 39.7522 12.6143L38.0052 12.3743C37.38 12.2905 36.9391 11.71 37.0284 11.0849L37.3521 8.71274C37.4414 8.0876 38.0163 7.65224 38.6415 7.73596L40.5504 7.9983C40.8909 7.26153 41.3262 6.57499 41.8341 5.9666L40.7681 4.56004C40.3885 4.06328 40.4834 3.34326 40.9858 2.96371L42.8891 1.51808C43.3914 1.13853 44.1114 1.23342 44.491 1.73576L45.6575 3.2707C46.3999 2.99162 47.1925 2.81301 48.0018 2.74045L48.2418 0.993413C48.3255 0.368276 48.906 -0.0726691 49.5312 0.0110546L51.9033 0.334786C52.5285 0.41851 52.9694 0.998994 52.8801 1.62413L52.6178 3.53303C53.3601 3.87351 54.0411 4.30887 54.655 4.82238L56.0616 3.7563C56.5639 3.37117 57.284 3.46605 57.6691 3.9684ZM16.8566 37.4635V28.2539H21.6009C22.4828 28.2539 23.1526 28.3264 23.6159 28.4827C24.0791 28.6334 24.4587 28.9125 24.7378 29.3199C25.0224 29.733 25.1676 30.2297 25.1676 30.8158C25.1676 31.3237 25.0559 31.7703 24.8382 32.1386C24.6206 32.5126 24.3192 32.814 23.9396 33.0429C23.6996 33.188 23.3647 33.3108 22.9405 33.4057C23.281 33.5229 23.5266 33.6289 23.6773 33.7461C23.7833 33.8243 23.934 33.9861 24.1294 34.2317C24.3247 34.4773 24.4587 34.6727 24.5257 34.8066L25.9099 37.469H22.6949L21.1767 34.6615C20.9814 34.2987 20.8139 34.0587 20.6632 33.9527C20.4567 33.8131 20.2223 33.7405 19.9655 33.7405H19.7143V37.469H16.8566V37.4635ZM26.8923 53.4993H21.5786L20.8139 55.9999H16.0249L21.7349 40.8236H26.8699L32.5576 55.9999H27.6458L26.8923 53.4993ZM25.8987 50.2118L24.241 44.753L22.5777 50.2118H25.8987ZM33.6627 40.8236H41.4658C43.1681 40.8236 44.4407 41.2254 45.2836 42.0348C46.1264 42.8441 46.5506 43.9995 46.5506 45.4898C46.5506 47.0247 46.0873 48.2248 45.1664 49.0899C44.2454 49.955 42.8333 50.3848 40.9411 50.3848H38.368V55.9999H33.6627V40.8236ZM38.368 47.3094H39.5234C40.4332 47.3094 41.0751 47.1531 41.4434 46.8349C41.8118 46.5224 41.996 46.1149 41.996 45.6293C41.996 45.1549 41.8341 44.7474 41.516 44.4181C41.1978 44.0888 40.595 43.9214 39.7132 43.9214H38.368V47.3094ZM48.4483 40.8236H53.1536V55.9999H48.4483V40.8236ZM19.7143 31.9935H20.9144C21.0428 31.9935 21.2939 31.9489 21.6679 31.8651C21.8577 31.8261 22.014 31.7312 22.1312 31.5749C22.254 31.4186 22.3098 31.24 22.3098 31.0391C22.3098 30.7432 22.2149 30.5088 22.0251 30.3525C21.8353 30.1907 21.4837 30.1125 20.9646 30.1125H19.7143V31.9935ZM26.4569 28.2539H34.0758V30.2186H29.3147V31.6865H33.7297V33.5619H29.3147V35.376H34.2153V37.4579H26.4569V28.2539ZM34.8907 34.4159L37.5921 34.2485C37.648 34.6894 37.7708 35.0187 37.9494 35.2476C38.2452 35.616 38.6638 35.8057 39.2052 35.8057C39.6071 35.8057 39.9252 35.7108 40.1429 35.5211C40.3606 35.3313 40.4722 35.108 40.4722 34.8569C40.4722 34.6169 40.3662 34.4048 40.1597 34.215C39.9532 34.0252 39.4676 33.8522 38.7029 33.6792C37.4582 33.4001 36.5707 33.0261 36.0349 32.5628C35.4991 32.0996 35.2311 31.5079 35.2311 30.7879C35.2311 30.3135 35.3707 29.8669 35.6442 29.4483C35.9177 29.0297 36.3307 28.6948 36.8833 28.4548C37.4359 28.2148 38.1894 28.0976 39.1494 28.0976C40.3271 28.0976 41.2202 28.3153 41.8397 28.7562C42.4537 29.1971 42.8221 29.8893 42.9393 30.8493L40.2657 31.0112C40.1932 30.5925 40.0425 30.2856 39.8192 30.1014C39.5904 29.9116 39.2722 29.8167 38.8759 29.8167C38.5466 29.8167 38.2954 29.8893 38.128 30.0288C37.9605 30.1683 37.8768 30.3414 37.8768 30.5423C37.8768 30.6874 37.9494 30.8158 38.0833 30.9386C38.2173 31.0558 38.5299 31.173 39.0322 31.2791C40.2769 31.547 41.1699 31.8205 41.7058 32.094C42.2416 32.3675 42.6379 32.708 42.8779 33.1154C43.1235 33.5173 43.2463 33.975 43.2463 34.4773C43.2463 35.069 43.0844 35.6104 42.7551 36.1071C42.4314 36.6039 41.9737 36.9834 41.3876 37.2402C40.8016 37.497 40.0648 37.6253 39.1717 37.6253C37.6089 37.6253 36.5205 37.3239 35.9177 36.7211C35.3149 36.1071 34.9744 35.3425 34.8907 34.4159ZM43.6593 28.2539H52.3164V30.5311H49.4139V37.4635H46.5673V30.5311H43.6593V28.2539ZM34.0813 6.39638C33.0599 6.31824 32.0273 6.3294 31.0059 6.42987C27.8635 6.73128 24.8103 7.8755 22.2875 9.83464C19.3683 12.0952 17.1524 15.4776 16.2984 19.9596L16.0305 21.3606L14.6351 21.6062C13.2676 21.8462 12.0453 22.1755 10.9736 22.5941C9.93542 22.996 9.00887 23.4928 8.19954 24.0788C7.55208 24.5477 6.99392 25.0724 6.51949 25.6417C5.05153 27.3999 4.37058 29.6046 4.38732 31.8372C4.40407 34.1034 5.14084 36.3918 6.50274 38.2728C7.01067 38.9705 7.59673 39.6124 8.26652 40.1705C8.94748 40.7343 9.71215 41.2031 10.5717 41.5548C11.0573 41.7557 11.5764 41.9231 12.1178 42.0571V46.2377C11.0015 46.0368 9.97449 45.7354 9.01446 45.3391C7.74744 44.8144 6.62554 44.139 5.6376 43.313C4.69989 42.5315 3.8794 41.6441 3.1817 40.6785C1.32304 38.1109 0.318353 34.9741 0.296026 31.8484C0.2737 28.6892 1.25606 25.5468 3.37706 23.0016C4.06359 22.1755 4.87292 21.4164 5.79947 20.7466C6.87671 19.9652 8.11024 19.3066 9.50563 18.7652C10.4657 18.3912 11.4927 18.0786 12.5755 17.8275C13.8035 12.9492 16.4212 9.19276 19.7869 6.58616C22.9349 4.14701 26.7248 2.7237 30.6263 2.34974C32.6748 2.15438 34.7511 2.24369 36.7828 2.62323C36.7382 2.80743 36.6991 2.99162 36.6768 3.18139L36.6712 3.21488C36.6321 3.53303 36.6154 3.85118 36.6321 4.17491C36.2023 4.34236 35.8005 4.57121 35.4377 4.85029L35.4209 4.86145C34.8795 5.2689 34.4218 5.79357 34.0813 6.39638ZM63.6135 17.113C63.926 17.3977 64.2275 17.6935 64.5233 18.0117C65.1205 18.6535 65.6842 19.3791 66.2145 20.1885C68.0006 22.9346 68.916 26.6017 68.8769 30.1907C68.8378 33.7126 67.889 37.2179 65.9466 39.7966C64.6796 41.4766 63.0553 42.8497 61.1073 43.9381C59.7734 44.686 58.2719 45.3056 56.6365 45.8079V41.4822C57.5184 41.1529 58.3389 40.7845 59.0924 40.3659C60.5604 39.5454 61.7604 38.5463 62.659 37.3463C64.0544 35.4876 64.741 32.8587 64.7689 30.1628C64.8024 27.3329 64.1102 24.4919 62.7651 22.4267C62.3799 21.8295 61.9557 21.2936 61.5092 20.8136C61.3362 20.6294 61.1632 20.4564 60.9846 20.2889C61.0125 20.0099 61.0236 19.7252 61.0069 19.4405C61.4367 19.2731 61.8385 19.0442 62.2013 18.7652L62.2181 18.754C62.793 18.3131 63.273 17.7549 63.6135 17.113ZM49.4586 7.14432C52.0317 7.49595 53.829 9.86813 53.4773 12.4412C53.1257 15.0143 50.7535 16.8172 48.1804 16.4656C45.6073 16.1139 43.8044 13.7417 44.1617 11.1686C44.5189 8.59553 46.8855 6.79268 49.4586 7.14432Z" fill="white" />
</g>
<defs>
<clipPath id="clip0_8_894">
<rect width="68.5865" height="56" fill="white" transform="translate(0.294922)"/>
</clipPath>
</defs>
</svg>
